%
M48
M72
T01C0.01000
T02C0.02756
T03C0.04000
%
T01
X344500Y39500
X360100Y56500
X367500Y48500
X373100Y60000
X377500Y59500
X379100Y55500
X375500Y65500
X371100Y66500
X375500Y72500
X380500Y72500
X383500Y69500
X390500Y73500
X389600Y91000
X393000Y94000
X394100Y106500
X381500Y104500
X375500Y98500
X370100Y100000
X368500Y95500
X358500Y105500
X366000Y115000
X371000Y116500
X373100Y121500
X372500Y130000
X370100Y133500
X373500Y137500
X379500Y138500
X385500Y131500
X389500Y124500
X391500Y143500
X391500Y148500
X385500Y148500
X369500Y153500
X365500Y147500
X355500Y151500
X352100Y161500
X380000Y165500
X384500Y165500
X389000Y165500
X394500Y172750
X402500Y163750
X432100Y161500
X435500Y151500
X445500Y147500
X449500Y153500
X460000Y165500
X464500Y165500
X469000Y165500
X474500Y172750
X482500Y163750
X471500Y148500
X471500Y143500
X465500Y148500
X459500Y138500
X453500Y137500
X450100Y133500
X452500Y130000
X453100Y121500
X451000Y116500
X446000Y115000
X438500Y105500
X450100Y100000
X448500Y95500
X455500Y98500
X461500Y104500
X474100Y106500
X473000Y94000
X469600Y91000
X470500Y73500
X463500Y69500
X460500Y72500
X455500Y72500
X455500Y65500
X451100Y66500
X453100Y60000
X457500Y59500
X459100Y55500
X447500Y48500
X440100Y56500
X439500Y69500
X441500Y80000
X445600Y79500
X424500Y39500
X398500Y39500
X359500Y69500
X361500Y80000
X365600Y79500
X347100Y130500
X427100Y130500
X465500Y131500
X469500Y124500
X507100Y130500
X530100Y133500
X532500Y130000
X533500Y137500
X539500Y138500
X545500Y131500
X549500Y124500
X533100Y121500
X531000Y116500
X526000Y115000
X518500Y105500
X530100Y100000
X528500Y95500
X535500Y98500
X541500Y104500
X554100Y106500
X553000Y94000
X549600Y91000
X550500Y73500
X543500Y69500
X540500Y72500
X535500Y72500
X535500Y65500
X531100Y66500
X533100Y60000
X537500Y59500
X539100Y55500
X527500Y48500
X520100Y56500
X519500Y69500
X521500Y80000
X525600Y79500
X504500Y39500
X478500Y39500
X558500Y39500
X584500Y39500
X600100Y56500
X613100Y60000
X617500Y59500
X619100Y55500
X615500Y65500
X611100Y66500
X615500Y72500
X620500Y72500
X623500Y69500
X630500Y73500
X629600Y91000
X633000Y94000
X634100Y106500
X621500Y104500
X615500Y98500
X610100Y100000
X608500Y95500
X598500Y105500
X606000Y115000
X611000Y116500
X613100Y121500
X612500Y130000
X610100Y133500
X613500Y137500
X619500Y138500
X625500Y131500
X629500Y124500
X631500Y143500
X631500Y148500
X625500Y148500
X609500Y153500
X605500Y147500
X595500Y151500
X592100Y161500
X620000Y165500
X624500Y165500
X629000Y165500
X634500Y172750
X642500Y163750
X672100Y161500
X675500Y151500
X685500Y147500
X689500Y153500
X700000Y165500
X704500Y165500
X709000Y165500
X714500Y172750
X722500Y163750
X711500Y148500
X711500Y143500
X705500Y148500
X699500Y138500
X693500Y137500
X690100Y133500
X692500Y130000
X705500Y131500
X709500Y124500
X693100Y121500
X691000Y116500
X686000Y115000
X678500Y105500
X690100Y100000
X688500Y95500
X695500Y98500
X701500Y104500
X714100Y106500
X713000Y94000
X709600Y91000
X710500Y73500
X703500Y69500
X700500Y72500
X695500Y72500
X695500Y65500
X691100Y66500
X693100Y60000
X697500Y59500
X699100Y55500
X687500Y48500
X680100Y56500
X679500Y69500
X681500Y80000
X685600Y79500
X664500Y39500
X638500Y39500
X607500Y48500
X599500Y69500
X601500Y80000
X605600Y79500
X587100Y130500
X551500Y143500
X551500Y148500
X545500Y148500
X529500Y153500
X525500Y147500
X515500Y151500
X512100Y161500
X540000Y165500
X544500Y165500
X549000Y165500
X554500Y172750
X562500Y163750
X583500Y193000
X604500Y192000
X621500Y204500
X626500Y201000
X636500Y202500
X618500Y218500
X609500Y218000
X629500Y222500
X631500Y226500
X611500Y234500
X617500Y249000
X628500Y249000
X603500Y249000
X591500Y239000
X586750Y243750
X582500Y242500
X587500Y227500
X592500Y229500
X583000Y212500
X556500Y202500
X546500Y201000
X541500Y204500
X538500Y218500
X529500Y218000
X512500Y229500
X507500Y227500
X511500Y239000
X506750Y243750
X502500Y242500
X523500Y249000
X537500Y249000
X548500Y249000
X531500Y234500
X551500Y226500
X549500Y222500
X524500Y192000
X503500Y193000
X503000Y212500
X476500Y202500
X466500Y201000
X461500Y204500
X458500Y218500
X449500Y218000
X469500Y222500
X471500Y226500
X451500Y234500
X457500Y249000
X468500Y249000
X443500Y249000
X431500Y239000
X426750Y243750
X422500Y242500
X427500Y227500
X432500Y229500
X423000Y212500
X423500Y193000
X444500Y192000
X396500Y202500
X386500Y201000
X381500Y204500
X378500Y218500
X369500Y218000
X352500Y229500
X347500Y227500
X351500Y239000
X346750Y243750
X342500Y242500
X363500Y249000
X377500Y249000
X388500Y249000
X371500Y234500
X391500Y226500
X389500Y222500
X364500Y192000
X343500Y193000
X343000Y212500
X344500Y328500
X360100Y345500
X367500Y337500
X379100Y344500
X377500Y348500
X373100Y349000
X375500Y354500
X371100Y355500
X375500Y361500
X380500Y361500
X383500Y358500
X390500Y362500
X389600Y380000
X393000Y383000
X394100Y395500
X381500Y393500
X375500Y387500
X370100Y389000
X368500Y384500
X358500Y394500
X366000Y404000
X371000Y405500
X373100Y410500
X372500Y419000
X370100Y422500
X373500Y426500
X379500Y427500
X385500Y420500
X389500Y413500
X391500Y432500
X391500Y437500
X385500Y437500
X369500Y442500
X365500Y436500
X355500Y440500
X352100Y450500
X380000Y454500
X384500Y454500
X389000Y454500
X394500Y461750
X402500Y452750
X432100Y450500
X435500Y440500
X445500Y436500
X449500Y442500
X460000Y454500
X464500Y454500
X469000Y454500
X474500Y461750
X482500Y452750
X471500Y437500
X471500Y432500
X465500Y437500
X459500Y427500
X453500Y426500
X450100Y422500
X452500Y419000
X453100Y410500
X451000Y405500
X446000Y404000
X438500Y394500
X450100Y389000
X448500Y384500
X455500Y387500
X461500Y393500
X474100Y395500
X473000Y383000
X469600Y380000
X470500Y362500
X463500Y358500
X460500Y361500
X455500Y361500
X455500Y354500
X451100Y355500
X453100Y349000
X457500Y348500
X459100Y344500
X447500Y337500
X440100Y345500
X439500Y358500
X441500Y369000
X445600Y368500
X424500Y328500
X398500Y328500
X359500Y358500
X361500Y369000
X365600Y368500
X347100Y419500
X427100Y419500
X465500Y420500
X469500Y413500
X507100Y419500
X530100Y422500
X532500Y419000
X533100Y410500
X531000Y405500
X526000Y404000
X518500Y394500
X530100Y389000
X528500Y384500
X535500Y387500
X541500Y393500
X554100Y395500
X553000Y383000
X549600Y380000
X550500Y362500
X543500Y358500
X540500Y361500
X535500Y361500
X535500Y354500
X531100Y355500
X533100Y349000
X537500Y348500
X539100Y344500
X527500Y337500
X520100Y345500
X519500Y358500
X521500Y369000
X525600Y368500
X504500Y328500
X478500Y328500
X558500Y328500
X584500Y328500
X600100Y345500
X607500Y337500
X619100Y344500
X617500Y348500
X613100Y349000
X615500Y354500
X611100Y355500
X615500Y361500
X620500Y361500
X623500Y358500
X630500Y362500
X629600Y380000
X633000Y383000
X634100Y395500
X621500Y393500
X615500Y387500
X610100Y389000
X608500Y384500
X598500Y394500
X606000Y404000
X611000Y405500
X613100Y410500
X612500Y419000
X610100Y422500
X613500Y426500
X619500Y427500
X625500Y420500
X629500Y413500
X631500Y432500
X631500Y437500
X625500Y437500
X609500Y442500
X605500Y436500
X595500Y440500
X592100Y450500
X620000Y454500
X624500Y454500
X629000Y454500
X634500Y461750
X642500Y452750
X672100Y450500
X675500Y440500
X685500Y436500
X689500Y442500
X700000Y454500
X704500Y454500
X709000Y454500
X714500Y461750
X722500Y452750
X711500Y437500
X711500Y432500
X705500Y437500
X699500Y427500
X693500Y426500
X690100Y422500
X692500Y419000
X693100Y410500
X691000Y405500
X686000Y404000
X678500Y394500
X690100Y389000
X688500Y384500
X695500Y387500
X701500Y393500
X714100Y395500
X713000Y383000
X709600Y380000
X710500Y362500
X703500Y358500
X700500Y361500
X695500Y361500
X695500Y354500
X691100Y355500
X693100Y349000
X697500Y348500
X699100Y344500
X687500Y337500
X680100Y345500
X679500Y358500
X681500Y369000
X685600Y368500
X664500Y328500
X638500Y328500
X599500Y358500
X601500Y369000
X605600Y368500
X549500Y413500
X545500Y420500
X539500Y427500
X533500Y426500
X525500Y436500
X529500Y442500
X515500Y440500
X512100Y450500
X540000Y454500
X544500Y454500
X549000Y454500
X554500Y461750
X562500Y452750
X551500Y437500
X551500Y432500
X545500Y437500
X587100Y419500
X604500Y481000
X583500Y482000
X583000Y501500
X587500Y516500
X592500Y518500
X591500Y528000
X586750Y532750
X582500Y531500
X603500Y538000
X617500Y538000
X628500Y538000
X611500Y523500
X609500Y507000
X618500Y507500
X629500Y511500
X631500Y515500
X621500Y493500
X626500Y490000
X636500Y491500
X663000Y501500
X667500Y516500
X672500Y518500
X671500Y528000
X666750Y532750
X662500Y531500
X683500Y538000
X697500Y538000
X708500Y538000
X691500Y523500
X689500Y507000
X698500Y507500
X709500Y511500
X711500Y515500
X701500Y493500
X706500Y490000
X716500Y491500
X743000Y501500
X747500Y516500
X752500Y518500
X751500Y528000
X746750Y532750
X742500Y531500
X763500Y538000
X777500Y538000
X788500Y538000
X771500Y523500
X769500Y507000
X778500Y507500
X789500Y511500
X791500Y515500
X781500Y493500
X786500Y490000
X796500Y491500
X764500Y481000
X743500Y482000
X780000Y454500
X784500Y454500
X789000Y454500
X794500Y461750
X802500Y452750
X791500Y437500
X791500Y432500
X785500Y437500
X779500Y427500
X773500Y426500
X770100Y422500
X772500Y419000
X773100Y410500
X771000Y405500
X766000Y404000
X758500Y394500
X770100Y389000
X768500Y384500
X775500Y387500
X781500Y393500
X794100Y395500
X793000Y383000
X789600Y380000
X790500Y362500
X783500Y358500
X780500Y361500
X775500Y361500
X775500Y354500
X771100Y355500
X773100Y349000
X777500Y348500
X779100Y344500
X767500Y337500
X760100Y345500
X759500Y358500
X761500Y369000
X765600Y368500
X744500Y328500
X718500Y328500
X798500Y328500
X788500Y249000
X777500Y249000
X763500Y249000
X751500Y239000
X746750Y243750
X742500Y242500
X747500Y227500
X752500Y229500
X771500Y234500
X791500Y226500
X789500Y222500
X778500Y218500
X769500Y218000
X781500Y204500
X786500Y201000
X796500Y202500
X764500Y192000
X743500Y193000
X743000Y212500
X716500Y202500
X706500Y201000
X701500Y204500
X698500Y218500
X689500Y218000
X672500Y229500
X667500Y227500
X671500Y239000
X666750Y243750
X662500Y242500
X683500Y249000
X697500Y249000
X708500Y249000
X691500Y234500
X711500Y226500
X709500Y222500
X684500Y192000
X663500Y193000
X663000Y212500
X752100Y161500
X755500Y151500
X765500Y147500
X769500Y153500
X780000Y165500
X784500Y165500
X789000Y165500
X794500Y172750
X802500Y163750
X791500Y148500
X791500Y143500
X785500Y148500
X779500Y138500
X773500Y137500
X770100Y133500
X772500Y130000
X773100Y121500
X771000Y116500
X766000Y115000
X758500Y105500
X770100Y100000
X768500Y95500
X775500Y98500
X781500Y104500
X794100Y106500
X793000Y94000
X789600Y91000
X790500Y73500
X783500Y69500
X780500Y72500
X775500Y72500
X775500Y65500
X771100Y66500
X773100Y60000
X777500Y59500
X779100Y55500
X767500Y48500
X760100Y56500
X759500Y69500
X761500Y80000
X765600Y79500
X744500Y39500
X718500Y39500
X798500Y39500
X789500Y124500
X785500Y131500
X747100Y130500
X667100Y130500
X709500Y413500
X705500Y420500
X667100Y419500
X747100Y419500
X765500Y436500
X769500Y442500
X755500Y440500
X752100Y450500
X785500Y420500
X789500Y413500
X684500Y481000
X663500Y482000
X556500Y491500
X546500Y490000
X541500Y493500
X538500Y507500
X529500Y507000
X531500Y523500
X551500Y515500
X549500Y511500
X548500Y538000
X537500Y538000
X523500Y538000
X511500Y528000
X506750Y532750
X502500Y531500
X512500Y518500
X507500Y516500
X503000Y501500
X503500Y482000
X524500Y481000
X476500Y491500
X466500Y490000
X461500Y493500
X458500Y507500
X449500Y507000
X451500Y523500
X432500Y518500
X427500Y516500
X431500Y528000
X426750Y532750
X422500Y531500
X443500Y538000
X457500Y538000
X468500Y538000
X471500Y515500
X469500Y511500
X423000Y501500
X423500Y482000
X444500Y481000
X396500Y491500
X386500Y490000
X381500Y493500
X378500Y507500
X369500Y507000
X371500Y523500
X391500Y515500
X389500Y511500
X388500Y538000
X377500Y538000
X363500Y538000
X351500Y528000
X346750Y532750
X342500Y531500
X352500Y518500
X347500Y516500
X343000Y501500
X343500Y482000
X364500Y481000
T02
X382750Y479437
X382750Y471563
X462750Y471563
X462750Y479437
X542750Y479437
X542750Y471563
X622750Y471563
X622750Y479437
X702750Y479437
X702750Y471563
X782750Y471563
X782750Y479437
X782750Y190437
X782750Y182563
X702750Y182563
X702750Y190437
X622750Y190437
X622750Y182563
X542750Y182563
X542750Y190437
X462750Y190437
X462750Y182563
X382750Y182563
X382750Y190437
T03
X341000Y46500
X342000Y56500
X341000Y66500
X342000Y76500
X341000Y86500
X342000Y96500
X341000Y106500
X342000Y116500
X341000Y126500
X342000Y136500
X341000Y146500
X342000Y156500
X390000Y181500
X390000Y191500
X402000Y156500
X401000Y146500
X402000Y136500
X401000Y126500
X402000Y116500
X401000Y106500
X402000Y96500
X401000Y86500
X402000Y76500
X401000Y66500
X391500Y66500
X391500Y56500
X402000Y56500
X401000Y46500
X386500Y36500
X376500Y36500
X366500Y36500
X356500Y36500
X421000Y46500
X422000Y56500
X421000Y66500
X422000Y76500
X421000Y86500
X422000Y96500
X421000Y106500
X422000Y116500
X421000Y126500
X422000Y136500
X421000Y146500
X422000Y156500
X470000Y181500
X470000Y191500
X482000Y156500
X481000Y146500
X482000Y136500
X481000Y126500
X482000Y116500
X481000Y106500
X482000Y96500
X481000Y86500
X482000Y76500
X481000Y66500
X482000Y56500
X481000Y46500
X471500Y56500
X471500Y66500
X501000Y66500
X502000Y56500
X501000Y46500
X516500Y36500
X526500Y36500
X536500Y36500
X546500Y36500
X561000Y46500
X562000Y56500
X561000Y66500
X551500Y66500
X551500Y56500
X562000Y76500
X561000Y86500
X562000Y96500
X561000Y106500
X562000Y116500
X561000Y126500
X562000Y136500
X561000Y146500
X562000Y156500
X581000Y146500
X582000Y156500
X582000Y136500
X581000Y126500
X582000Y116500
X581000Y106500
X582000Y96500
X581000Y86500
X582000Y76500
X581000Y66500
X582000Y56500
X581000Y46500
X596500Y36500
X606500Y36500
X616500Y36500
X626500Y36500
X641000Y46500
X642000Y56500
X641000Y66500
X631500Y66500
X631500Y56500
X642000Y76500
X641000Y86500
X642000Y96500
X641000Y106500
X642000Y116500
X641000Y126500
X642000Y136500
X641000Y146500
X642000Y156500
X662000Y156500
X661000Y146500
X662000Y136500
X661000Y126500
X662000Y116500
X661000Y106500
X662000Y96500
X661000Y86500
X662000Y76500
X661000Y66500
X662000Y56500
X661000Y46500
X676500Y36500
X686500Y36500
X696500Y36500
X706500Y36500
X721000Y46500
X722000Y56500
X721000Y66500
X711500Y66500
X711500Y56500
X722000Y76500
X721000Y86500
X722000Y96500
X721000Y106500
X722000Y116500
X721000Y126500
X722000Y136500
X721000Y146500
X722000Y156500
X741000Y146500
X742000Y156500
X742000Y136500
X741000Y126500
X742000Y116500
X741000Y106500
X742000Y96500
X741000Y86500
X742000Y76500
X741000Y66500
X742000Y56500
X741000Y46500
X756500Y36500
X766500Y36500
X776500Y36500
X786500Y36500
X801000Y46500
X802000Y56500
X801000Y66500
X791500Y66500
X791500Y56500
X802000Y76500
X801000Y86500
X802000Y96500
X801000Y106500
X802000Y116500
X801000Y126500
X802000Y136500
X801000Y146500
X802000Y156500
X790000Y181500
X790000Y191500
X710000Y191500
X710000Y181500
X630000Y181500
X630000Y191500
X550000Y191500
X550000Y181500
X502000Y156500
X501000Y146500
X502000Y136500
X501000Y126500
X502000Y116500
X501000Y106500
X502000Y96500
X501000Y86500
X502000Y76500
X466500Y36500
X456500Y36500
X446500Y36500
X436500Y36500
X436500Y325500
X446500Y325500
X456500Y325500
X466500Y325500
X481000Y335500
X482000Y345500
X481000Y355500
X471500Y355500
X471500Y345500
X482000Y365500
X481000Y375500
X482000Y385500
X481000Y395500
X482000Y405500
X481000Y415500
X482000Y425500
X481000Y435500
X482000Y445500
X502000Y445500
X501000Y435500
X502000Y425500
X501000Y415500
X502000Y405500
X501000Y395500
X502000Y385500
X501000Y375500
X502000Y365500
X501000Y355500
X502000Y345500
X501000Y335500
X516500Y325500
X526500Y325500
X536500Y325500
X546500Y325500
X561000Y335500
X562000Y345500
X551500Y345500
X551500Y355500
X561000Y355500
X562000Y365500
X561000Y375500
X562000Y385500
X561000Y395500
X562000Y405500
X561000Y415500
X562000Y425500
X561000Y435500
X562000Y445500
X581000Y435500
X582000Y425500
X581000Y415500
X582000Y405500
X581000Y395500
X582000Y385500
X581000Y375500
X582000Y365500
X581000Y355500
X582000Y345500
X581000Y335500
X596500Y325500
X606500Y325500
X616500Y325500
X626500Y325500
X641000Y335500
X642000Y345500
X641000Y355500
X631500Y355500
X631500Y345500
X642000Y365500
X641000Y375500
X642000Y385500
X641000Y395500
X642000Y405500
X641000Y415500
X642000Y425500
X641000Y435500
X642000Y445500
X662000Y445500
X661000Y435500
X662000Y425500
X661000Y415500
X662000Y405500
X661000Y395500
X662000Y385500
X661000Y375500
X662000Y365500
X661000Y355500
X662000Y345500
X661000Y335500
X676500Y325500
X686500Y325500
X696500Y325500
X706500Y325500
X721000Y335500
X722000Y345500
X711500Y345500
X711500Y355500
X721000Y355500
X722000Y365500
X721000Y375500
X722000Y385500
X721000Y395500
X722000Y405500
X721000Y415500
X722000Y425500
X721000Y435500
X722000Y445500
X741000Y435500
X742000Y425500
X741000Y415500
X742000Y405500
X741000Y395500
X742000Y385500
X741000Y375500
X742000Y365500
X741000Y355500
X742000Y345500
X741000Y335500
X756500Y325500
X766500Y325500
X776500Y325500
X786500Y325500
X801000Y335500
X802000Y345500
X801000Y355500
X791500Y355500
X791500Y345500
X802000Y365500
X801000Y375500
X802000Y385500
X801000Y395500
X802000Y405500
X801000Y415500
X802000Y425500
X801000Y435500
X802000Y445500
X790000Y470500
X790000Y480500
X742000Y445500
X710000Y470500
X710000Y480500
X630000Y480500
X630000Y470500
X582000Y445500
X550000Y470500
X550000Y480500
X470000Y480500
X470000Y470500
X422000Y445500
X421000Y435500
X422000Y425500
X421000Y415500
X422000Y405500
X421000Y395500
X422000Y385500
X421000Y375500
X422000Y365500
X421000Y355500
X422000Y345500
X421000Y335500
X401000Y335500
X402000Y345500
X391500Y345500
X391500Y355500
X401000Y355500
X402000Y365500
X401000Y375500
X402000Y385500
X401000Y395500
X402000Y405500
X401000Y415500
X402000Y425500
X401000Y435500
X402000Y445500
X390000Y470500
X390000Y480500
X342000Y445500
X341000Y435500
X342000Y425500
X341000Y415500
X342000Y405500
X341000Y395500
X342000Y385500
X341000Y375500
X342000Y365500
X341000Y355500
X342000Y345500
X341000Y335500
X356500Y325500
X366500Y325500
X376500Y325500
X386500Y325500
M30
