G75*
%MOIN*%
%OFA0B0*%
%FSLAX25Y25*%
%IPPOS*%
%LPD*%
%AMOC8*
5,1,8,0,0,1.08239X$1,22.5*
%
%ADD10C,0.08200*%
%ADD11C,0.07099*%
%ADD12R,0.08200X0.08200*%
D10*
X0341000Y0046500D03*
X0342000Y0056500D03*
X0341000Y0066500D03*
X0342000Y0076500D03*
X0341000Y0086500D03*
X0342000Y0096500D03*
X0341000Y0106500D03*
X0342000Y0116500D03*
X0341000Y0126500D03*
X0342000Y0136500D03*
X0341000Y0146500D03*
X0342000Y0156500D03*
X0390000Y0181500D03*
X0390000Y0191500D03*
X0402000Y0156500D03*
X0401000Y0146500D03*
X0402000Y0136500D03*
X0401000Y0126500D03*
X0402000Y0116500D03*
X0401000Y0106500D03*
X0402000Y0096500D03*
X0401000Y0086500D03*
X0402000Y0076500D03*
X0401000Y0066500D03*
X0391500Y0066500D03*
X0391500Y0056500D03*
X0402000Y0056500D03*
X0401000Y0046500D03*
X0421000Y0046500D03*
X0422000Y0056500D03*
X0421000Y0066500D03*
X0422000Y0076500D03*
X0421000Y0086500D03*
X0422000Y0096500D03*
X0421000Y0106500D03*
X0422000Y0116500D03*
X0421000Y0126500D03*
X0422000Y0136500D03*
X0421000Y0146500D03*
X0422000Y0156500D03*
X0470000Y0181500D03*
X0470000Y0191500D03*
X0482000Y0156500D03*
X0481000Y0146500D03*
X0482000Y0136500D03*
X0481000Y0126500D03*
X0482000Y0116500D03*
X0481000Y0106500D03*
X0482000Y0096500D03*
X0481000Y0086500D03*
X0482000Y0076500D03*
X0481000Y0066500D03*
X0482000Y0056500D03*
X0481000Y0046500D03*
X0471500Y0056500D03*
X0471500Y0066500D03*
X0501000Y0066500D03*
X0502000Y0056500D03*
X0501000Y0046500D03*
X0516500Y0036500D03*
X0526500Y0036500D03*
X0536500Y0036500D03*
X0561000Y0046500D03*
X0562000Y0056500D03*
X0561000Y0066500D03*
X0551500Y0066500D03*
X0551500Y0056500D03*
X0562000Y0076500D03*
X0561000Y0086500D03*
X0562000Y0096500D03*
X0561000Y0106500D03*
X0562000Y0116500D03*
X0561000Y0126500D03*
X0562000Y0136500D03*
X0561000Y0146500D03*
X0562000Y0156500D03*
X0581000Y0146500D03*
X0582000Y0156500D03*
X0582000Y0136500D03*
X0581000Y0126500D03*
X0582000Y0116500D03*
X0581000Y0106500D03*
X0582000Y0096500D03*
X0581000Y0086500D03*
X0582000Y0076500D03*
X0581000Y0066500D03*
X0582000Y0056500D03*
X0581000Y0046500D03*
X0596500Y0036500D03*
X0606500Y0036500D03*
X0616500Y0036500D03*
X0641000Y0046500D03*
X0642000Y0056500D03*
X0641000Y0066500D03*
X0631500Y0066500D03*
X0631500Y0056500D03*
X0642000Y0076500D03*
X0641000Y0086500D03*
X0642000Y0096500D03*
X0641000Y0106500D03*
X0642000Y0116500D03*
X0641000Y0126500D03*
X0642000Y0136500D03*
X0641000Y0146500D03*
X0642000Y0156500D03*
X0662000Y0156500D03*
X0661000Y0146500D03*
X0662000Y0136500D03*
X0661000Y0126500D03*
X0662000Y0116500D03*
X0661000Y0106500D03*
X0662000Y0096500D03*
X0661000Y0086500D03*
X0662000Y0076500D03*
X0661000Y0066500D03*
X0662000Y0056500D03*
X0661000Y0046500D03*
X0676500Y0036500D03*
X0686500Y0036500D03*
X0696500Y0036500D03*
X0721000Y0046500D03*
X0722000Y0056500D03*
X0721000Y0066500D03*
X0711500Y0066500D03*
X0711500Y0056500D03*
X0722000Y0076500D03*
X0721000Y0086500D03*
X0722000Y0096500D03*
X0721000Y0106500D03*
X0722000Y0116500D03*
X0721000Y0126500D03*
X0722000Y0136500D03*
X0721000Y0146500D03*
X0722000Y0156500D03*
X0741000Y0146500D03*
X0742000Y0156500D03*
X0742000Y0136500D03*
X0741000Y0126500D03*
X0742000Y0116500D03*
X0741000Y0106500D03*
X0742000Y0096500D03*
X0741000Y0086500D03*
X0742000Y0076500D03*
X0741000Y0066500D03*
X0742000Y0056500D03*
X0741000Y0046500D03*
X0756500Y0036500D03*
X0766500Y0036500D03*
X0776500Y0036500D03*
X0801000Y0046500D03*
X0802000Y0056500D03*
X0801000Y0066500D03*
X0791500Y0066500D03*
X0791500Y0056500D03*
X0802000Y0076500D03*
X0801000Y0086500D03*
X0802000Y0096500D03*
X0801000Y0106500D03*
X0802000Y0116500D03*
X0801000Y0126500D03*
X0802000Y0136500D03*
X0801000Y0146500D03*
X0802000Y0156500D03*
X0790000Y0181500D03*
X0790000Y0191500D03*
X0710000Y0191500D03*
X0710000Y0181500D03*
X0630000Y0181500D03*
X0630000Y0191500D03*
X0550000Y0191500D03*
X0550000Y0181500D03*
X0502000Y0156500D03*
X0501000Y0146500D03*
X0502000Y0136500D03*
X0501000Y0126500D03*
X0502000Y0116500D03*
X0501000Y0106500D03*
X0502000Y0096500D03*
X0501000Y0086500D03*
X0502000Y0076500D03*
X0456500Y0036500D03*
X0446500Y0036500D03*
X0436500Y0036500D03*
X0376500Y0036500D03*
X0366500Y0036500D03*
X0356500Y0036500D03*
X0356500Y0325500D03*
X0366500Y0325500D03*
X0376500Y0325500D03*
X0391500Y0345500D03*
X0402000Y0345500D03*
X0401000Y0335500D03*
X0421000Y0335500D03*
X0422000Y0345500D03*
X0421000Y0355500D03*
X0422000Y0365500D03*
X0421000Y0375500D03*
X0422000Y0385500D03*
X0421000Y0395500D03*
X0422000Y0405500D03*
X0421000Y0415500D03*
X0422000Y0425500D03*
X0421000Y0435500D03*
X0422000Y0445500D03*
X0402000Y0445500D03*
X0401000Y0435500D03*
X0402000Y0425500D03*
X0401000Y0415500D03*
X0402000Y0405500D03*
X0401000Y0395500D03*
X0402000Y0385500D03*
X0401000Y0375500D03*
X0402000Y0365500D03*
X0401000Y0355500D03*
X0391500Y0355500D03*
X0436500Y0325500D03*
X0446500Y0325500D03*
X0456500Y0325500D03*
X0471500Y0345500D03*
X0471500Y0355500D03*
X0481000Y0355500D03*
X0482000Y0345500D03*
X0481000Y0335500D03*
X0501000Y0335500D03*
X0502000Y0345500D03*
X0501000Y0355500D03*
X0502000Y0365500D03*
X0501000Y0375500D03*
X0502000Y0385500D03*
X0501000Y0395500D03*
X0502000Y0405500D03*
X0501000Y0415500D03*
X0502000Y0425500D03*
X0501000Y0435500D03*
X0502000Y0445500D03*
X0482000Y0445500D03*
X0481000Y0435500D03*
X0482000Y0425500D03*
X0481000Y0415500D03*
X0482000Y0405500D03*
X0481000Y0395500D03*
X0482000Y0385500D03*
X0481000Y0375500D03*
X0482000Y0365500D03*
X0516500Y0325500D03*
X0526500Y0325500D03*
X0536500Y0325500D03*
X0551500Y0345500D03*
X0562000Y0345500D03*
X0561000Y0335500D03*
X0581000Y0335500D03*
X0582000Y0345500D03*
X0581000Y0355500D03*
X0582000Y0365500D03*
X0581000Y0375500D03*
X0582000Y0385500D03*
X0581000Y0395500D03*
X0582000Y0405500D03*
X0581000Y0415500D03*
X0582000Y0425500D03*
X0581000Y0435500D03*
X0582000Y0445500D03*
X0562000Y0445500D03*
X0561000Y0435500D03*
X0562000Y0425500D03*
X0561000Y0415500D03*
X0562000Y0405500D03*
X0561000Y0395500D03*
X0562000Y0385500D03*
X0561000Y0375500D03*
X0562000Y0365500D03*
X0561000Y0355500D03*
X0551500Y0355500D03*
X0596500Y0325500D03*
X0606500Y0325500D03*
X0616500Y0325500D03*
X0631500Y0345500D03*
X0631500Y0355500D03*
X0641000Y0355500D03*
X0642000Y0345500D03*
X0641000Y0335500D03*
X0661000Y0335500D03*
X0662000Y0345500D03*
X0661000Y0355500D03*
X0662000Y0365500D03*
X0661000Y0375500D03*
X0662000Y0385500D03*
X0661000Y0395500D03*
X0662000Y0405500D03*
X0661000Y0415500D03*
X0662000Y0425500D03*
X0661000Y0435500D03*
X0662000Y0445500D03*
X0642000Y0445500D03*
X0641000Y0435500D03*
X0642000Y0425500D03*
X0641000Y0415500D03*
X0642000Y0405500D03*
X0641000Y0395500D03*
X0642000Y0385500D03*
X0641000Y0375500D03*
X0642000Y0365500D03*
X0676500Y0325500D03*
X0686500Y0325500D03*
X0696500Y0325500D03*
X0711500Y0345500D03*
X0722000Y0345500D03*
X0721000Y0335500D03*
X0741000Y0335500D03*
X0742000Y0345500D03*
X0741000Y0355500D03*
X0742000Y0365500D03*
X0741000Y0375500D03*
X0742000Y0385500D03*
X0741000Y0395500D03*
X0742000Y0405500D03*
X0741000Y0415500D03*
X0742000Y0425500D03*
X0741000Y0435500D03*
X0742000Y0445500D03*
X0722000Y0445500D03*
X0721000Y0435500D03*
X0722000Y0425500D03*
X0721000Y0415500D03*
X0722000Y0405500D03*
X0721000Y0395500D03*
X0722000Y0385500D03*
X0721000Y0375500D03*
X0722000Y0365500D03*
X0721000Y0355500D03*
X0711500Y0355500D03*
X0756500Y0325500D03*
X0766500Y0325500D03*
X0776500Y0325500D03*
X0791500Y0345500D03*
X0791500Y0355500D03*
X0801000Y0355500D03*
X0802000Y0345500D03*
X0801000Y0335500D03*
X0802000Y0365500D03*
X0801000Y0375500D03*
X0802000Y0385500D03*
X0801000Y0395500D03*
X0802000Y0405500D03*
X0801000Y0415500D03*
X0802000Y0425500D03*
X0801000Y0435500D03*
X0802000Y0445500D03*
X0790000Y0470500D03*
X0790000Y0480500D03*
X0710000Y0480500D03*
X0710000Y0470500D03*
X0630000Y0470500D03*
X0630000Y0480500D03*
X0550000Y0480500D03*
X0550000Y0470500D03*
X0470000Y0470500D03*
X0470000Y0480500D03*
X0390000Y0480500D03*
X0390000Y0470500D03*
X0342000Y0445500D03*
X0341000Y0435500D03*
X0342000Y0425500D03*
X0341000Y0415500D03*
X0342000Y0405500D03*
X0341000Y0395500D03*
X0342000Y0385500D03*
X0341000Y0375500D03*
X0342000Y0365500D03*
X0341000Y0355500D03*
X0342000Y0345500D03*
X0341000Y0335500D03*
D11*
X0382750Y0471563D03*
X0382750Y0479437D03*
X0462750Y0479437D03*
X0462750Y0471563D03*
X0542750Y0471563D03*
X0542750Y0479437D03*
X0622750Y0479437D03*
X0622750Y0471563D03*
X0702750Y0471563D03*
X0702750Y0479437D03*
X0782750Y0479437D03*
X0782750Y0471563D03*
X0782750Y0190437D03*
X0782750Y0182563D03*
X0702750Y0182563D03*
X0702750Y0190437D03*
X0622750Y0190437D03*
X0622750Y0182563D03*
X0542750Y0182563D03*
X0542750Y0190437D03*
X0462750Y0190437D03*
X0462750Y0182563D03*
X0382750Y0182563D03*
X0382750Y0190437D03*
D12*
X0386500Y0325500D03*
X0466500Y0325500D03*
X0546500Y0325500D03*
X0626500Y0325500D03*
X0706500Y0325500D03*
X0786500Y0325500D03*
X0786500Y0036500D03*
X0706500Y0036500D03*
X0626500Y0036500D03*
X0546500Y0036500D03*
X0466500Y0036500D03*
X0386500Y0036500D03*
M02*
