G75*
%MOIN*%
%OFA0B0*%
%FSLAX25Y25*%
%IPPOS*%
%LPD*%
%AMOC8*
5,1,8,0,0,1.08239X$1,22.5*
%
%ADD10R,0.05131X0.04737*%
%ADD11R,0.04737X0.05131*%
%ADD12R,0.05800X0.06587*%
%ADD13C,0.01421*%
%ADD14C,0.04737*%
%ADD15R,0.06706X0.30328*%
%ADD16R,0.04737X0.26391*%
%ADD17C,0.08200*%
%ADD18R,0.04343X0.03950*%
%ADD19R,0.06800X0.03800*%
%ADD20R,0.05800X0.03000*%
%ADD21R,0.03000X0.05800*%
%ADD22R,0.13760X0.06040*%
%ADD23C,0.02572*%
%ADD24R,0.02965X0.05524*%
%ADD25R,0.07099X0.06312*%
%ADD26R,0.05524X0.10643*%
%ADD27R,0.17335X0.06312*%
%ADD28C,0.07099*%
%ADD29R,0.02300X0.05300*%
%ADD30R,0.03556X0.03556*%
%ADD31R,0.08200X0.08200*%
%ADD32C,0.05000*%
%ADD33C,0.06706*%
D10*
X0370654Y0078250D03*
X0377346Y0078250D03*
X0386654Y0078500D03*
X0393346Y0078500D03*
X0393346Y0085500D03*
X0386654Y0085500D03*
X0450654Y0078250D03*
X0457346Y0078250D03*
X0466654Y0078500D03*
X0473346Y0078500D03*
X0473346Y0085500D03*
X0466654Y0085500D03*
X0530654Y0078250D03*
X0537346Y0078250D03*
X0546654Y0078500D03*
X0553346Y0078500D03*
X0553346Y0085500D03*
X0546654Y0085500D03*
X0610654Y0078250D03*
X0617346Y0078250D03*
X0626654Y0078500D03*
X0633346Y0078500D03*
X0633346Y0085500D03*
X0626654Y0085500D03*
X0690654Y0078250D03*
X0697346Y0078250D03*
X0706654Y0078500D03*
X0713346Y0078500D03*
X0713346Y0085500D03*
X0706654Y0085500D03*
X0770654Y0078250D03*
X0777346Y0078250D03*
X0786654Y0078500D03*
X0793346Y0078500D03*
X0793346Y0085500D03*
X0786654Y0085500D03*
X0776721Y0146813D03*
X0770029Y0146813D03*
X0696721Y0146813D03*
X0690029Y0146813D03*
X0616721Y0146813D03*
X0610029Y0146813D03*
X0536721Y0146813D03*
X0530029Y0146813D03*
X0456721Y0146813D03*
X0450029Y0146813D03*
X0376721Y0146813D03*
X0370029Y0146813D03*
X0370654Y0367250D03*
X0377346Y0367250D03*
X0386654Y0367500D03*
X0393346Y0367500D03*
X0393346Y0374500D03*
X0386654Y0374500D03*
X0450654Y0367250D03*
X0457346Y0367250D03*
X0466654Y0367500D03*
X0473346Y0367500D03*
X0473346Y0374500D03*
X0466654Y0374500D03*
X0530654Y0367250D03*
X0537346Y0367250D03*
X0546654Y0367500D03*
X0553346Y0367500D03*
X0553346Y0374500D03*
X0546654Y0374500D03*
X0610654Y0367250D03*
X0617346Y0367250D03*
X0626654Y0367500D03*
X0633346Y0367500D03*
X0633346Y0374500D03*
X0626654Y0374500D03*
X0690654Y0367250D03*
X0697346Y0367250D03*
X0706654Y0367500D03*
X0713346Y0367500D03*
X0713346Y0374500D03*
X0706654Y0374500D03*
X0770654Y0367250D03*
X0777346Y0367250D03*
X0786654Y0367500D03*
X0793346Y0367500D03*
X0793346Y0374500D03*
X0786654Y0374500D03*
X0776721Y0435812D03*
X0770029Y0435812D03*
X0696721Y0435812D03*
X0690029Y0435812D03*
X0616721Y0435812D03*
X0610029Y0435812D03*
X0536721Y0435812D03*
X0530029Y0435812D03*
X0456721Y0435812D03*
X0450029Y0435812D03*
X0376721Y0435812D03*
X0370029Y0435812D03*
D11*
X0385250Y0432596D03*
X0391500Y0427346D03*
X0385250Y0425904D03*
X0391500Y0420654D03*
X0391250Y0442154D03*
X0385250Y0442154D03*
X0385250Y0448846D03*
X0391250Y0448846D03*
X0392000Y0497154D03*
X0398000Y0497154D03*
X0398000Y0503846D03*
X0392000Y0503846D03*
X0383500Y0507654D03*
X0383500Y0514346D03*
X0383500Y0524654D03*
X0389000Y0524654D03*
X0389000Y0531346D03*
X0383500Y0531346D03*
X0422000Y0526846D03*
X0422000Y0520154D03*
X0422000Y0514846D03*
X0422000Y0508154D03*
X0463500Y0507654D03*
X0463500Y0514346D03*
X0463500Y0524654D03*
X0469000Y0524654D03*
X0469000Y0531346D03*
X0463500Y0531346D03*
X0472000Y0503846D03*
X0478000Y0503846D03*
X0478000Y0497154D03*
X0472000Y0497154D03*
X0502000Y0508154D03*
X0502000Y0514846D03*
X0502000Y0520154D03*
X0502000Y0526846D03*
X0543500Y0524654D03*
X0549000Y0524654D03*
X0549000Y0531346D03*
X0543500Y0531346D03*
X0543500Y0514346D03*
X0543500Y0507654D03*
X0552000Y0503846D03*
X0558000Y0503846D03*
X0558000Y0497154D03*
X0552000Y0497154D03*
X0582000Y0508154D03*
X0582000Y0514846D03*
X0582000Y0520154D03*
X0582000Y0526846D03*
X0623500Y0524654D03*
X0629000Y0524654D03*
X0629000Y0531346D03*
X0623500Y0531346D03*
X0623500Y0514346D03*
X0623500Y0507654D03*
X0632000Y0503846D03*
X0638000Y0503846D03*
X0638000Y0497154D03*
X0632000Y0497154D03*
X0662000Y0508154D03*
X0662000Y0514846D03*
X0662000Y0520154D03*
X0662000Y0526846D03*
X0703500Y0524654D03*
X0709000Y0524654D03*
X0709000Y0531346D03*
X0703500Y0531346D03*
X0703500Y0514346D03*
X0703500Y0507654D03*
X0712000Y0503846D03*
X0718000Y0503846D03*
X0718000Y0497154D03*
X0712000Y0497154D03*
X0742000Y0508154D03*
X0742000Y0514846D03*
X0742000Y0520154D03*
X0742000Y0526846D03*
X0783500Y0524654D03*
X0789000Y0524654D03*
X0789000Y0531346D03*
X0783500Y0531346D03*
X0783500Y0514346D03*
X0783500Y0507654D03*
X0792000Y0503846D03*
X0798000Y0503846D03*
X0798000Y0497154D03*
X0792000Y0497154D03*
X0791250Y0448846D03*
X0785250Y0448846D03*
X0785250Y0442154D03*
X0791250Y0442154D03*
X0785250Y0432596D03*
X0791500Y0427346D03*
X0785250Y0425904D03*
X0791500Y0420654D03*
X0711500Y0420654D03*
X0711500Y0427346D03*
X0705250Y0425904D03*
X0705250Y0432596D03*
X0705250Y0442154D03*
X0711250Y0442154D03*
X0711250Y0448846D03*
X0705250Y0448846D03*
X0631250Y0448846D03*
X0625250Y0448846D03*
X0625250Y0442154D03*
X0631250Y0442154D03*
X0625250Y0432596D03*
X0631500Y0427346D03*
X0625250Y0425904D03*
X0631500Y0420654D03*
X0551500Y0420654D03*
X0551500Y0427346D03*
X0545250Y0425904D03*
X0545250Y0432596D03*
X0545250Y0442154D03*
X0551250Y0442154D03*
X0551250Y0448846D03*
X0545250Y0448846D03*
X0471250Y0448846D03*
X0465250Y0448846D03*
X0465250Y0442154D03*
X0471250Y0442154D03*
X0465250Y0432596D03*
X0471500Y0427346D03*
X0465250Y0425904D03*
X0471500Y0420654D03*
X0342000Y0508154D03*
X0342000Y0514846D03*
X0342000Y0520154D03*
X0342000Y0526846D03*
X0383500Y0242346D03*
X0389000Y0242346D03*
X0389000Y0235654D03*
X0383500Y0235654D03*
X0383500Y0225346D03*
X0383500Y0218654D03*
X0392000Y0214846D03*
X0398000Y0214846D03*
X0398000Y0208154D03*
X0392000Y0208154D03*
X0422000Y0219154D03*
X0422000Y0225846D03*
X0422000Y0231154D03*
X0422000Y0237846D03*
X0463500Y0235654D03*
X0469000Y0235654D03*
X0469000Y0242346D03*
X0463500Y0242346D03*
X0463500Y0225346D03*
X0463500Y0218654D03*
X0472000Y0214846D03*
X0478000Y0214846D03*
X0478000Y0208154D03*
X0472000Y0208154D03*
X0502000Y0219154D03*
X0502000Y0225846D03*
X0502000Y0231154D03*
X0502000Y0237846D03*
X0543500Y0235654D03*
X0549000Y0235654D03*
X0549000Y0242346D03*
X0543500Y0242346D03*
X0543500Y0225346D03*
X0543500Y0218654D03*
X0552000Y0214846D03*
X0558000Y0214846D03*
X0558000Y0208154D03*
X0552000Y0208154D03*
X0582000Y0219154D03*
X0582000Y0225846D03*
X0582000Y0231154D03*
X0582000Y0237846D03*
X0623500Y0235654D03*
X0629000Y0235654D03*
X0629000Y0242346D03*
X0623500Y0242346D03*
X0623500Y0225346D03*
X0623500Y0218654D03*
X0632000Y0214846D03*
X0638000Y0214846D03*
X0638000Y0208154D03*
X0632000Y0208154D03*
X0662000Y0219154D03*
X0662000Y0225846D03*
X0662000Y0231154D03*
X0662000Y0237846D03*
X0703500Y0235654D03*
X0709000Y0235654D03*
X0709000Y0242346D03*
X0703500Y0242346D03*
X0703500Y0225346D03*
X0703500Y0218654D03*
X0712000Y0214846D03*
X0718000Y0214846D03*
X0718000Y0208154D03*
X0712000Y0208154D03*
X0742000Y0219154D03*
X0742000Y0225846D03*
X0742000Y0231154D03*
X0742000Y0237846D03*
X0783500Y0235654D03*
X0789000Y0235654D03*
X0789000Y0242346D03*
X0783500Y0242346D03*
X0783500Y0225346D03*
X0783500Y0218654D03*
X0792000Y0214846D03*
X0798000Y0214846D03*
X0798000Y0208154D03*
X0792000Y0208154D03*
X0791250Y0159846D03*
X0785250Y0159846D03*
X0785250Y0153154D03*
X0791250Y0153154D03*
X0785250Y0143596D03*
X0785250Y0136904D03*
X0791500Y0138346D03*
X0791500Y0131654D03*
X0711500Y0131654D03*
X0711500Y0138346D03*
X0705250Y0136904D03*
X0705250Y0143596D03*
X0705250Y0153154D03*
X0711250Y0153154D03*
X0711250Y0159846D03*
X0705250Y0159846D03*
X0631250Y0159846D03*
X0625250Y0159846D03*
X0625250Y0153154D03*
X0631250Y0153154D03*
X0625250Y0143596D03*
X0625250Y0136904D03*
X0631500Y0138346D03*
X0631500Y0131654D03*
X0551500Y0131654D03*
X0551500Y0138346D03*
X0545250Y0136904D03*
X0545250Y0143596D03*
X0545250Y0153154D03*
X0551250Y0153154D03*
X0551250Y0159846D03*
X0545250Y0159846D03*
X0471250Y0159846D03*
X0465250Y0159846D03*
X0465250Y0153154D03*
X0471250Y0153154D03*
X0465250Y0143596D03*
X0465250Y0136904D03*
X0471500Y0138346D03*
X0471500Y0131654D03*
X0391500Y0131654D03*
X0391500Y0138346D03*
X0385250Y0136904D03*
X0385250Y0143596D03*
X0385250Y0153154D03*
X0391250Y0153154D03*
X0391250Y0159846D03*
X0385250Y0159846D03*
X0342000Y0219154D03*
X0342000Y0225846D03*
X0342000Y0231154D03*
X0342000Y0237846D03*
D12*
X0348535Y0212250D03*
X0365465Y0212250D03*
X0358427Y0170538D03*
X0341498Y0170538D03*
X0421498Y0170538D03*
X0438427Y0170538D03*
X0445465Y0212250D03*
X0428535Y0212250D03*
X0501498Y0170538D03*
X0518427Y0170538D03*
X0525465Y0212250D03*
X0508535Y0212250D03*
X0581498Y0170538D03*
X0598427Y0170538D03*
X0605465Y0212250D03*
X0588535Y0212250D03*
X0661498Y0170538D03*
X0678427Y0170538D03*
X0685465Y0212250D03*
X0668535Y0212250D03*
X0741498Y0170538D03*
X0758427Y0170538D03*
X0765465Y0212250D03*
X0748535Y0212250D03*
X0741498Y0459537D03*
X0758427Y0459537D03*
X0765465Y0501250D03*
X0748535Y0501250D03*
X0685465Y0501250D03*
X0668535Y0501250D03*
X0661498Y0459537D03*
X0678427Y0459537D03*
X0605465Y0501250D03*
X0588535Y0501250D03*
X0581498Y0459537D03*
X0598427Y0459537D03*
X0525465Y0501250D03*
X0508535Y0501250D03*
X0501498Y0459537D03*
X0518427Y0459537D03*
X0438427Y0459537D03*
X0421498Y0459537D03*
X0428535Y0501250D03*
X0445465Y0501250D03*
X0365465Y0501250D03*
X0348535Y0501250D03*
X0341498Y0459537D03*
X0358427Y0459537D03*
D13*
X0396342Y0510139D02*
X0399658Y0510139D01*
X0396342Y0510139D02*
X0396342Y0513455D01*
X0399658Y0513455D01*
X0399658Y0510139D01*
X0399658Y0511559D02*
X0396342Y0511559D01*
X0396342Y0512979D02*
X0399658Y0512979D01*
X0399658Y0517045D02*
X0396342Y0517045D01*
X0396342Y0520361D01*
X0399658Y0520361D01*
X0399658Y0517045D01*
X0399658Y0518465D02*
X0396342Y0518465D01*
X0396342Y0519885D02*
X0399658Y0519885D01*
X0476342Y0517045D02*
X0479658Y0517045D01*
X0476342Y0517045D02*
X0476342Y0520361D01*
X0479658Y0520361D01*
X0479658Y0517045D01*
X0479658Y0518465D02*
X0476342Y0518465D01*
X0476342Y0519885D02*
X0479658Y0519885D01*
X0479658Y0510139D02*
X0476342Y0510139D01*
X0476342Y0513455D01*
X0479658Y0513455D01*
X0479658Y0510139D01*
X0479658Y0511559D02*
X0476342Y0511559D01*
X0476342Y0512979D02*
X0479658Y0512979D01*
X0556342Y0510139D02*
X0559658Y0510139D01*
X0556342Y0510139D02*
X0556342Y0513455D01*
X0559658Y0513455D01*
X0559658Y0510139D01*
X0559658Y0511559D02*
X0556342Y0511559D01*
X0556342Y0512979D02*
X0559658Y0512979D01*
X0559658Y0517045D02*
X0556342Y0517045D01*
X0556342Y0520361D01*
X0559658Y0520361D01*
X0559658Y0517045D01*
X0559658Y0518465D02*
X0556342Y0518465D01*
X0556342Y0519885D02*
X0559658Y0519885D01*
X0636342Y0517045D02*
X0639658Y0517045D01*
X0636342Y0517045D02*
X0636342Y0520361D01*
X0639658Y0520361D01*
X0639658Y0517045D01*
X0639658Y0518465D02*
X0636342Y0518465D01*
X0636342Y0519885D02*
X0639658Y0519885D01*
X0639658Y0510139D02*
X0636342Y0510139D01*
X0636342Y0513455D01*
X0639658Y0513455D01*
X0639658Y0510139D01*
X0639658Y0511559D02*
X0636342Y0511559D01*
X0636342Y0512979D02*
X0639658Y0512979D01*
X0716342Y0510139D02*
X0719658Y0510139D01*
X0716342Y0510139D02*
X0716342Y0513455D01*
X0719658Y0513455D01*
X0719658Y0510139D01*
X0719658Y0511559D02*
X0716342Y0511559D01*
X0716342Y0512979D02*
X0719658Y0512979D01*
X0719658Y0517045D02*
X0716342Y0517045D01*
X0716342Y0520361D01*
X0719658Y0520361D01*
X0719658Y0517045D01*
X0719658Y0518465D02*
X0716342Y0518465D01*
X0716342Y0519885D02*
X0719658Y0519885D01*
X0796342Y0517045D02*
X0799658Y0517045D01*
X0796342Y0517045D02*
X0796342Y0520361D01*
X0799658Y0520361D01*
X0799658Y0517045D01*
X0799658Y0518465D02*
X0796342Y0518465D01*
X0796342Y0519885D02*
X0799658Y0519885D01*
X0799658Y0510139D02*
X0796342Y0510139D01*
X0796342Y0513455D01*
X0799658Y0513455D01*
X0799658Y0510139D01*
X0799658Y0511559D02*
X0796342Y0511559D01*
X0796342Y0512979D02*
X0799658Y0512979D01*
X0754158Y0347611D02*
X0750842Y0347611D01*
X0754158Y0347611D02*
X0754158Y0344295D01*
X0750842Y0344295D01*
X0750842Y0347611D01*
X0750842Y0345715D02*
X0754158Y0345715D01*
X0754158Y0347135D02*
X0750842Y0347135D01*
X0750842Y0340705D02*
X0754158Y0340705D01*
X0754158Y0337389D01*
X0750842Y0337389D01*
X0750842Y0340705D01*
X0750842Y0338809D02*
X0754158Y0338809D01*
X0754158Y0340229D02*
X0750842Y0340229D01*
X0674158Y0340705D02*
X0670842Y0340705D01*
X0674158Y0340705D02*
X0674158Y0337389D01*
X0670842Y0337389D01*
X0670842Y0340705D01*
X0670842Y0338809D02*
X0674158Y0338809D01*
X0674158Y0340229D02*
X0670842Y0340229D01*
X0670842Y0347611D02*
X0674158Y0347611D01*
X0674158Y0344295D01*
X0670842Y0344295D01*
X0670842Y0347611D01*
X0670842Y0345715D02*
X0674158Y0345715D01*
X0674158Y0347135D02*
X0670842Y0347135D01*
X0594158Y0347611D02*
X0590842Y0347611D01*
X0594158Y0347611D02*
X0594158Y0344295D01*
X0590842Y0344295D01*
X0590842Y0347611D01*
X0590842Y0345715D02*
X0594158Y0345715D01*
X0594158Y0347135D02*
X0590842Y0347135D01*
X0590842Y0340705D02*
X0594158Y0340705D01*
X0594158Y0337389D01*
X0590842Y0337389D01*
X0590842Y0340705D01*
X0590842Y0338809D02*
X0594158Y0338809D01*
X0594158Y0340229D02*
X0590842Y0340229D01*
X0514158Y0340705D02*
X0510842Y0340705D01*
X0514158Y0340705D02*
X0514158Y0337389D01*
X0510842Y0337389D01*
X0510842Y0340705D01*
X0510842Y0338809D02*
X0514158Y0338809D01*
X0514158Y0340229D02*
X0510842Y0340229D01*
X0510842Y0347611D02*
X0514158Y0347611D01*
X0514158Y0344295D01*
X0510842Y0344295D01*
X0510842Y0347611D01*
X0510842Y0345715D02*
X0514158Y0345715D01*
X0514158Y0347135D02*
X0510842Y0347135D01*
X0434158Y0347611D02*
X0430842Y0347611D01*
X0434158Y0347611D02*
X0434158Y0344295D01*
X0430842Y0344295D01*
X0430842Y0347611D01*
X0430842Y0345715D02*
X0434158Y0345715D01*
X0434158Y0347135D02*
X0430842Y0347135D01*
X0430842Y0340705D02*
X0434158Y0340705D01*
X0434158Y0337389D01*
X0430842Y0337389D01*
X0430842Y0340705D01*
X0430842Y0338809D02*
X0434158Y0338809D01*
X0434158Y0340229D02*
X0430842Y0340229D01*
X0354158Y0340705D02*
X0350842Y0340705D01*
X0354158Y0340705D02*
X0354158Y0337389D01*
X0350842Y0337389D01*
X0350842Y0340705D01*
X0350842Y0338809D02*
X0354158Y0338809D01*
X0354158Y0340229D02*
X0350842Y0340229D01*
X0350842Y0347611D02*
X0354158Y0347611D01*
X0354158Y0344295D01*
X0350842Y0344295D01*
X0350842Y0347611D01*
X0350842Y0345715D02*
X0354158Y0345715D01*
X0354158Y0347135D02*
X0350842Y0347135D01*
X0396342Y0228045D02*
X0399658Y0228045D01*
X0396342Y0228045D02*
X0396342Y0231361D01*
X0399658Y0231361D01*
X0399658Y0228045D01*
X0399658Y0229465D02*
X0396342Y0229465D01*
X0396342Y0230885D02*
X0399658Y0230885D01*
X0399658Y0221139D02*
X0396342Y0221139D01*
X0396342Y0224455D01*
X0399658Y0224455D01*
X0399658Y0221139D01*
X0399658Y0222559D02*
X0396342Y0222559D01*
X0396342Y0223979D02*
X0399658Y0223979D01*
X0476342Y0221139D02*
X0479658Y0221139D01*
X0476342Y0221139D02*
X0476342Y0224455D01*
X0479658Y0224455D01*
X0479658Y0221139D01*
X0479658Y0222559D02*
X0476342Y0222559D01*
X0476342Y0223979D02*
X0479658Y0223979D01*
X0479658Y0228045D02*
X0476342Y0228045D01*
X0476342Y0231361D01*
X0479658Y0231361D01*
X0479658Y0228045D01*
X0479658Y0229465D02*
X0476342Y0229465D01*
X0476342Y0230885D02*
X0479658Y0230885D01*
X0556342Y0228045D02*
X0559658Y0228045D01*
X0556342Y0228045D02*
X0556342Y0231361D01*
X0559658Y0231361D01*
X0559658Y0228045D01*
X0559658Y0229465D02*
X0556342Y0229465D01*
X0556342Y0230885D02*
X0559658Y0230885D01*
X0559658Y0221139D02*
X0556342Y0221139D01*
X0556342Y0224455D01*
X0559658Y0224455D01*
X0559658Y0221139D01*
X0559658Y0222559D02*
X0556342Y0222559D01*
X0556342Y0223979D02*
X0559658Y0223979D01*
X0636342Y0221139D02*
X0639658Y0221139D01*
X0636342Y0221139D02*
X0636342Y0224455D01*
X0639658Y0224455D01*
X0639658Y0221139D01*
X0639658Y0222559D02*
X0636342Y0222559D01*
X0636342Y0223979D02*
X0639658Y0223979D01*
X0639658Y0228045D02*
X0636342Y0228045D01*
X0636342Y0231361D01*
X0639658Y0231361D01*
X0639658Y0228045D01*
X0639658Y0229465D02*
X0636342Y0229465D01*
X0636342Y0230885D02*
X0639658Y0230885D01*
X0716342Y0228045D02*
X0719658Y0228045D01*
X0716342Y0228045D02*
X0716342Y0231361D01*
X0719658Y0231361D01*
X0719658Y0228045D01*
X0719658Y0229465D02*
X0716342Y0229465D01*
X0716342Y0230885D02*
X0719658Y0230885D01*
X0719658Y0221139D02*
X0716342Y0221139D01*
X0716342Y0224455D01*
X0719658Y0224455D01*
X0719658Y0221139D01*
X0719658Y0222559D02*
X0716342Y0222559D01*
X0716342Y0223979D02*
X0719658Y0223979D01*
X0796342Y0221139D02*
X0799658Y0221139D01*
X0796342Y0221139D02*
X0796342Y0224455D01*
X0799658Y0224455D01*
X0799658Y0221139D01*
X0799658Y0222559D02*
X0796342Y0222559D01*
X0796342Y0223979D02*
X0799658Y0223979D01*
X0799658Y0228045D02*
X0796342Y0228045D01*
X0796342Y0231361D01*
X0799658Y0231361D01*
X0799658Y0228045D01*
X0799658Y0229465D02*
X0796342Y0229465D01*
X0796342Y0230885D02*
X0799658Y0230885D01*
X0754158Y0058611D02*
X0750842Y0058611D01*
X0754158Y0058611D02*
X0754158Y0055295D01*
X0750842Y0055295D01*
X0750842Y0058611D01*
X0750842Y0056715D02*
X0754158Y0056715D01*
X0754158Y0058135D02*
X0750842Y0058135D01*
X0750842Y0051705D02*
X0754158Y0051705D01*
X0754158Y0048389D01*
X0750842Y0048389D01*
X0750842Y0051705D01*
X0750842Y0049809D02*
X0754158Y0049809D01*
X0754158Y0051229D02*
X0750842Y0051229D01*
X0674158Y0051705D02*
X0670842Y0051705D01*
X0674158Y0051705D02*
X0674158Y0048389D01*
X0670842Y0048389D01*
X0670842Y0051705D01*
X0670842Y0049809D02*
X0674158Y0049809D01*
X0674158Y0051229D02*
X0670842Y0051229D01*
X0670842Y0058611D02*
X0674158Y0058611D01*
X0674158Y0055295D01*
X0670842Y0055295D01*
X0670842Y0058611D01*
X0670842Y0056715D02*
X0674158Y0056715D01*
X0674158Y0058135D02*
X0670842Y0058135D01*
X0594158Y0058611D02*
X0590842Y0058611D01*
X0594158Y0058611D02*
X0594158Y0055295D01*
X0590842Y0055295D01*
X0590842Y0058611D01*
X0590842Y0056715D02*
X0594158Y0056715D01*
X0594158Y0058135D02*
X0590842Y0058135D01*
X0590842Y0051705D02*
X0594158Y0051705D01*
X0594158Y0048389D01*
X0590842Y0048389D01*
X0590842Y0051705D01*
X0590842Y0049809D02*
X0594158Y0049809D01*
X0594158Y0051229D02*
X0590842Y0051229D01*
X0514158Y0051705D02*
X0510842Y0051705D01*
X0514158Y0051705D02*
X0514158Y0048389D01*
X0510842Y0048389D01*
X0510842Y0051705D01*
X0510842Y0049809D02*
X0514158Y0049809D01*
X0514158Y0051229D02*
X0510842Y0051229D01*
X0510842Y0058611D02*
X0514158Y0058611D01*
X0514158Y0055295D01*
X0510842Y0055295D01*
X0510842Y0058611D01*
X0510842Y0056715D02*
X0514158Y0056715D01*
X0514158Y0058135D02*
X0510842Y0058135D01*
X0434158Y0058611D02*
X0430842Y0058611D01*
X0434158Y0058611D02*
X0434158Y0055295D01*
X0430842Y0055295D01*
X0430842Y0058611D01*
X0430842Y0056715D02*
X0434158Y0056715D01*
X0434158Y0058135D02*
X0430842Y0058135D01*
X0430842Y0051705D02*
X0434158Y0051705D01*
X0434158Y0048389D01*
X0430842Y0048389D01*
X0430842Y0051705D01*
X0430842Y0049809D02*
X0434158Y0049809D01*
X0434158Y0051229D02*
X0430842Y0051229D01*
X0354158Y0051705D02*
X0350842Y0051705D01*
X0354158Y0051705D02*
X0354158Y0048389D01*
X0350842Y0048389D01*
X0350842Y0051705D01*
X0350842Y0049809D02*
X0354158Y0049809D01*
X0354158Y0051229D02*
X0350842Y0051229D01*
X0350842Y0058611D02*
X0354158Y0058611D01*
X0354158Y0055295D01*
X0350842Y0055295D01*
X0350842Y0058611D01*
X0350842Y0056715D02*
X0354158Y0056715D01*
X0354158Y0058135D02*
X0350842Y0058135D01*
D14*
X0340500Y0035500D03*
X0420500Y0035500D03*
X0500500Y0035500D03*
X0580500Y0035500D03*
X0660500Y0035500D03*
X0740500Y0035500D03*
X0821000Y0055500D03*
X0793500Y0248500D03*
X0713500Y0248500D03*
X0633500Y0248500D03*
X0553500Y0248500D03*
X0473500Y0248500D03*
X0393500Y0248500D03*
X0420500Y0324500D03*
X0340500Y0324500D03*
X0500500Y0324500D03*
X0580500Y0324500D03*
X0660500Y0324500D03*
X0740500Y0324500D03*
X0713500Y0537500D03*
X0633500Y0537500D03*
X0553500Y0537500D03*
X0473500Y0537500D03*
X0393500Y0537500D03*
X0793500Y0537500D03*
X0821000Y0549500D03*
D15*
X0785280Y0561287D03*
X0757720Y0561287D03*
X0705280Y0561287D03*
X0677720Y0561287D03*
X0625280Y0561287D03*
X0597720Y0561287D03*
X0545280Y0561287D03*
X0517720Y0561287D03*
X0465280Y0561287D03*
X0437720Y0561287D03*
X0385280Y0561287D03*
X0357720Y0561287D03*
X0357720Y0272287D03*
X0385280Y0272287D03*
X0437720Y0272287D03*
X0465280Y0272287D03*
X0517720Y0272287D03*
X0545280Y0272287D03*
X0597720Y0272287D03*
X0625280Y0272287D03*
X0677720Y0272287D03*
X0705280Y0272287D03*
X0757720Y0272287D03*
X0785280Y0272287D03*
D16*
X0775437Y0270319D03*
X0767563Y0270319D03*
X0695437Y0270319D03*
X0687563Y0270319D03*
X0615437Y0270319D03*
X0607563Y0270319D03*
X0535437Y0270319D03*
X0527563Y0270319D03*
X0455437Y0270319D03*
X0447563Y0270319D03*
X0375437Y0270319D03*
X0367563Y0270319D03*
X0367563Y0559319D03*
X0375437Y0559319D03*
X0447563Y0559319D03*
X0455437Y0559319D03*
X0527563Y0559319D03*
X0535437Y0559319D03*
X0607563Y0559319D03*
X0615437Y0559319D03*
X0687563Y0559319D03*
X0695437Y0559319D03*
X0767563Y0559319D03*
X0775437Y0559319D03*
D17*
X0790000Y0480500D03*
X0790000Y0470500D03*
X0802000Y0445500D03*
X0801000Y0435500D03*
X0802000Y0425500D03*
X0801000Y0415500D03*
X0802000Y0405500D03*
X0801000Y0395500D03*
X0802000Y0385500D03*
X0801000Y0375500D03*
X0802000Y0365500D03*
X0801000Y0355500D03*
X0791500Y0355500D03*
X0791500Y0345500D03*
X0802000Y0345500D03*
X0801000Y0335500D03*
X0776500Y0325500D03*
X0766500Y0325500D03*
X0756500Y0325500D03*
X0741000Y0335500D03*
X0742000Y0345500D03*
X0741000Y0355500D03*
X0742000Y0365500D03*
X0741000Y0375500D03*
X0742000Y0385500D03*
X0741000Y0395500D03*
X0742000Y0405500D03*
X0741000Y0415500D03*
X0742000Y0425500D03*
X0741000Y0435500D03*
X0742000Y0445500D03*
X0722000Y0445500D03*
X0721000Y0435500D03*
X0722000Y0425500D03*
X0721000Y0415500D03*
X0722000Y0405500D03*
X0721000Y0395500D03*
X0722000Y0385500D03*
X0721000Y0375500D03*
X0722000Y0365500D03*
X0721000Y0355500D03*
X0711500Y0355500D03*
X0711500Y0345500D03*
X0722000Y0345500D03*
X0721000Y0335500D03*
X0696500Y0325500D03*
X0686500Y0325500D03*
X0676500Y0325500D03*
X0661000Y0335500D03*
X0662000Y0345500D03*
X0661000Y0355500D03*
X0662000Y0365500D03*
X0661000Y0375500D03*
X0662000Y0385500D03*
X0661000Y0395500D03*
X0662000Y0405500D03*
X0661000Y0415500D03*
X0662000Y0425500D03*
X0661000Y0435500D03*
X0662000Y0445500D03*
X0642000Y0445500D03*
X0641000Y0435500D03*
X0642000Y0425500D03*
X0641000Y0415500D03*
X0642000Y0405500D03*
X0641000Y0395500D03*
X0642000Y0385500D03*
X0641000Y0375500D03*
X0642000Y0365500D03*
X0641000Y0355500D03*
X0631500Y0355500D03*
X0631500Y0345500D03*
X0642000Y0345500D03*
X0641000Y0335500D03*
X0616500Y0325500D03*
X0606500Y0325500D03*
X0596500Y0325500D03*
X0581000Y0335500D03*
X0582000Y0345500D03*
X0581000Y0355500D03*
X0582000Y0365500D03*
X0581000Y0375500D03*
X0582000Y0385500D03*
X0581000Y0395500D03*
X0582000Y0405500D03*
X0581000Y0415500D03*
X0582000Y0425500D03*
X0581000Y0435500D03*
X0582000Y0445500D03*
X0562000Y0445500D03*
X0561000Y0435500D03*
X0562000Y0425500D03*
X0561000Y0415500D03*
X0562000Y0405500D03*
X0561000Y0395500D03*
X0562000Y0385500D03*
X0561000Y0375500D03*
X0562000Y0365500D03*
X0561000Y0355500D03*
X0551500Y0355500D03*
X0551500Y0345500D03*
X0562000Y0345500D03*
X0561000Y0335500D03*
X0536500Y0325500D03*
X0526500Y0325500D03*
X0516500Y0325500D03*
X0501000Y0335500D03*
X0502000Y0345500D03*
X0501000Y0355500D03*
X0502000Y0365500D03*
X0501000Y0375500D03*
X0502000Y0385500D03*
X0501000Y0395500D03*
X0502000Y0405500D03*
X0501000Y0415500D03*
X0502000Y0425500D03*
X0501000Y0435500D03*
X0502000Y0445500D03*
X0482000Y0445500D03*
X0481000Y0435500D03*
X0482000Y0425500D03*
X0481000Y0415500D03*
X0482000Y0405500D03*
X0481000Y0395500D03*
X0482000Y0385500D03*
X0481000Y0375500D03*
X0482000Y0365500D03*
X0481000Y0355500D03*
X0471500Y0355500D03*
X0471500Y0345500D03*
X0482000Y0345500D03*
X0481000Y0335500D03*
X0456500Y0325500D03*
X0446500Y0325500D03*
X0436500Y0325500D03*
X0421000Y0335500D03*
X0422000Y0345500D03*
X0421000Y0355500D03*
X0422000Y0365500D03*
X0421000Y0375500D03*
X0422000Y0385500D03*
X0421000Y0395500D03*
X0422000Y0405500D03*
X0421000Y0415500D03*
X0422000Y0425500D03*
X0421000Y0435500D03*
X0422000Y0445500D03*
X0402000Y0445500D03*
X0401000Y0435500D03*
X0402000Y0425500D03*
X0401000Y0415500D03*
X0402000Y0405500D03*
X0401000Y0395500D03*
X0402000Y0385500D03*
X0401000Y0375500D03*
X0402000Y0365500D03*
X0401000Y0355500D03*
X0391500Y0355500D03*
X0391500Y0345500D03*
X0402000Y0345500D03*
X0401000Y0335500D03*
X0376500Y0325500D03*
X0366500Y0325500D03*
X0356500Y0325500D03*
X0341000Y0335500D03*
X0342000Y0345500D03*
X0341000Y0355500D03*
X0342000Y0365500D03*
X0341000Y0375500D03*
X0342000Y0385500D03*
X0341000Y0395500D03*
X0342000Y0405500D03*
X0341000Y0415500D03*
X0342000Y0425500D03*
X0341000Y0435500D03*
X0342000Y0445500D03*
X0390000Y0470500D03*
X0390000Y0480500D03*
X0470000Y0480500D03*
X0470000Y0470500D03*
X0550000Y0470500D03*
X0550000Y0480500D03*
X0630000Y0480500D03*
X0630000Y0470500D03*
X0710000Y0470500D03*
X0710000Y0480500D03*
X0710000Y0191500D03*
X0710000Y0181500D03*
X0722000Y0156500D03*
X0721000Y0146500D03*
X0722000Y0136500D03*
X0721000Y0126500D03*
X0722000Y0116500D03*
X0721000Y0106500D03*
X0722000Y0096500D03*
X0721000Y0086500D03*
X0722000Y0076500D03*
X0721000Y0066500D03*
X0711500Y0066500D03*
X0711500Y0056500D03*
X0722000Y0056500D03*
X0721000Y0046500D03*
X0741000Y0046500D03*
X0742000Y0056500D03*
X0741000Y0066500D03*
X0742000Y0076500D03*
X0741000Y0086500D03*
X0742000Y0096500D03*
X0741000Y0106500D03*
X0742000Y0116500D03*
X0741000Y0126500D03*
X0742000Y0136500D03*
X0741000Y0146500D03*
X0742000Y0156500D03*
X0790000Y0181500D03*
X0790000Y0191500D03*
X0802000Y0156500D03*
X0801000Y0146500D03*
X0802000Y0136500D03*
X0801000Y0126500D03*
X0802000Y0116500D03*
X0801000Y0106500D03*
X0802000Y0096500D03*
X0801000Y0086500D03*
X0802000Y0076500D03*
X0801000Y0066500D03*
X0802000Y0056500D03*
X0801000Y0046500D03*
X0791500Y0056500D03*
X0791500Y0066500D03*
X0776500Y0036500D03*
X0766500Y0036500D03*
X0756500Y0036500D03*
X0696500Y0036500D03*
X0686500Y0036500D03*
X0676500Y0036500D03*
X0661000Y0046500D03*
X0662000Y0056500D03*
X0661000Y0066500D03*
X0662000Y0076500D03*
X0661000Y0086500D03*
X0662000Y0096500D03*
X0661000Y0106500D03*
X0662000Y0116500D03*
X0661000Y0126500D03*
X0662000Y0136500D03*
X0661000Y0146500D03*
X0662000Y0156500D03*
X0642000Y0156500D03*
X0641000Y0146500D03*
X0642000Y0136500D03*
X0641000Y0126500D03*
X0642000Y0116500D03*
X0641000Y0106500D03*
X0642000Y0096500D03*
X0641000Y0086500D03*
X0642000Y0076500D03*
X0641000Y0066500D03*
X0642000Y0056500D03*
X0641000Y0046500D03*
X0631500Y0056500D03*
X0631500Y0066500D03*
X0616500Y0036500D03*
X0606500Y0036500D03*
X0596500Y0036500D03*
X0581000Y0046500D03*
X0582000Y0056500D03*
X0581000Y0066500D03*
X0582000Y0076500D03*
X0581000Y0086500D03*
X0582000Y0096500D03*
X0581000Y0106500D03*
X0582000Y0116500D03*
X0581000Y0126500D03*
X0582000Y0136500D03*
X0581000Y0146500D03*
X0582000Y0156500D03*
X0562000Y0156500D03*
X0561000Y0146500D03*
X0562000Y0136500D03*
X0561000Y0126500D03*
X0562000Y0116500D03*
X0561000Y0106500D03*
X0562000Y0096500D03*
X0561000Y0086500D03*
X0562000Y0076500D03*
X0561000Y0066500D03*
X0551500Y0066500D03*
X0551500Y0056500D03*
X0562000Y0056500D03*
X0561000Y0046500D03*
X0536500Y0036500D03*
X0526500Y0036500D03*
X0516500Y0036500D03*
X0501000Y0046500D03*
X0502000Y0056500D03*
X0501000Y0066500D03*
X0502000Y0076500D03*
X0501000Y0086500D03*
X0502000Y0096500D03*
X0501000Y0106500D03*
X0502000Y0116500D03*
X0501000Y0126500D03*
X0502000Y0136500D03*
X0501000Y0146500D03*
X0502000Y0156500D03*
X0482000Y0156500D03*
X0481000Y0146500D03*
X0482000Y0136500D03*
X0481000Y0126500D03*
X0482000Y0116500D03*
X0481000Y0106500D03*
X0482000Y0096500D03*
X0481000Y0086500D03*
X0482000Y0076500D03*
X0481000Y0066500D03*
X0482000Y0056500D03*
X0481000Y0046500D03*
X0471500Y0056500D03*
X0471500Y0066500D03*
X0456500Y0036500D03*
X0446500Y0036500D03*
X0436500Y0036500D03*
X0421000Y0046500D03*
X0422000Y0056500D03*
X0421000Y0066500D03*
X0422000Y0076500D03*
X0421000Y0086500D03*
X0422000Y0096500D03*
X0421000Y0106500D03*
X0422000Y0116500D03*
X0421000Y0126500D03*
X0422000Y0136500D03*
X0421000Y0146500D03*
X0422000Y0156500D03*
X0402000Y0156500D03*
X0401000Y0146500D03*
X0402000Y0136500D03*
X0401000Y0126500D03*
X0402000Y0116500D03*
X0401000Y0106500D03*
X0402000Y0096500D03*
X0401000Y0086500D03*
X0402000Y0076500D03*
X0401000Y0066500D03*
X0391500Y0066500D03*
X0391500Y0056500D03*
X0402000Y0056500D03*
X0401000Y0046500D03*
X0376500Y0036500D03*
X0366500Y0036500D03*
X0356500Y0036500D03*
X0341000Y0046500D03*
X0342000Y0056500D03*
X0341000Y0066500D03*
X0342000Y0076500D03*
X0341000Y0086500D03*
X0342000Y0096500D03*
X0341000Y0106500D03*
X0342000Y0116500D03*
X0341000Y0126500D03*
X0342000Y0136500D03*
X0341000Y0146500D03*
X0342000Y0156500D03*
X0390000Y0181500D03*
X0390000Y0191500D03*
X0470000Y0191500D03*
X0470000Y0181500D03*
X0550000Y0181500D03*
X0550000Y0191500D03*
X0630000Y0191500D03*
X0630000Y0181500D03*
D18*
X0613063Y0206260D03*
X0621331Y0210000D03*
X0613063Y0213740D03*
X0541331Y0210000D03*
X0533063Y0206260D03*
X0533063Y0213740D03*
X0461331Y0210000D03*
X0453063Y0206260D03*
X0453063Y0213740D03*
X0381331Y0210000D03*
X0373063Y0206260D03*
X0373063Y0213740D03*
X0693063Y0213740D03*
X0701331Y0210000D03*
X0693063Y0206260D03*
X0773063Y0206260D03*
X0781331Y0210000D03*
X0773063Y0213740D03*
X0773063Y0495260D03*
X0773063Y0502740D03*
X0781331Y0499000D03*
X0701331Y0499000D03*
X0693063Y0502740D03*
X0693063Y0495260D03*
X0621331Y0499000D03*
X0613063Y0502740D03*
X0613063Y0495260D03*
X0541331Y0499000D03*
X0533063Y0502740D03*
X0533063Y0495260D03*
X0461331Y0499000D03*
X0453063Y0502740D03*
X0453063Y0495260D03*
X0381331Y0499000D03*
X0373063Y0502740D03*
X0373063Y0495260D03*
D19*
X0382500Y0353000D03*
X0382500Y0338000D03*
X0360500Y0338000D03*
X0360500Y0353000D03*
X0440500Y0353000D03*
X0440500Y0338000D03*
X0462500Y0338000D03*
X0462500Y0353000D03*
X0520500Y0353000D03*
X0520500Y0338000D03*
X0542500Y0338000D03*
X0542500Y0353000D03*
X0600500Y0353000D03*
X0600500Y0338000D03*
X0622500Y0338000D03*
X0622500Y0353000D03*
X0680500Y0353000D03*
X0680500Y0338000D03*
X0702500Y0338000D03*
X0702500Y0353000D03*
X0760500Y0353000D03*
X0760500Y0338000D03*
X0782500Y0338000D03*
X0782500Y0353000D03*
X0782500Y0064000D03*
X0782500Y0049000D03*
X0760500Y0049000D03*
X0760500Y0064000D03*
X0702500Y0064000D03*
X0702500Y0049000D03*
X0680500Y0049000D03*
X0680500Y0064000D03*
X0622500Y0064000D03*
X0622500Y0049000D03*
X0600500Y0049000D03*
X0600500Y0064000D03*
X0542500Y0064000D03*
X0542500Y0049000D03*
X0520500Y0049000D03*
X0520500Y0064000D03*
X0462500Y0064000D03*
X0462500Y0049000D03*
X0440500Y0049000D03*
X0440500Y0064000D03*
X0382500Y0064000D03*
X0382500Y0049000D03*
X0360500Y0049000D03*
X0360500Y0064000D03*
D20*
G36*
X0376644Y0083644D02*
X0372544Y0087744D01*
X0374666Y0089866D01*
X0378766Y0085766D01*
X0376644Y0083644D01*
G37*
G36*
X0378871Y0085871D02*
X0374771Y0089971D01*
X0376893Y0092093D01*
X0380993Y0087993D01*
X0378871Y0085871D01*
G37*
G36*
X0381098Y0088098D02*
X0376998Y0092198D01*
X0379120Y0094320D01*
X0383220Y0090220D01*
X0381098Y0088098D01*
G37*
G36*
X0383326Y0090325D02*
X0379226Y0094425D01*
X0381348Y0096547D01*
X0385448Y0092447D01*
X0383326Y0090325D01*
G37*
G36*
X0385553Y0092552D02*
X0381453Y0096652D01*
X0383575Y0098774D01*
X0387675Y0094674D01*
X0385553Y0092552D01*
G37*
G36*
X0387780Y0094780D02*
X0383680Y0098880D01*
X0385802Y0101002D01*
X0389902Y0096902D01*
X0387780Y0094780D01*
G37*
G36*
X0390007Y0097007D02*
X0385907Y0101107D01*
X0388029Y0103229D01*
X0392129Y0099129D01*
X0390007Y0097007D01*
G37*
G36*
X0392234Y0099234D02*
X0388134Y0103334D01*
X0390256Y0105456D01*
X0394356Y0101356D01*
X0392234Y0099234D01*
G37*
G36*
X0368334Y0123134D02*
X0364234Y0127234D01*
X0366356Y0129356D01*
X0370456Y0125256D01*
X0368334Y0123134D01*
G37*
G36*
X0366107Y0120907D02*
X0362007Y0125007D01*
X0364129Y0127129D01*
X0368229Y0123029D01*
X0366107Y0120907D01*
G37*
G36*
X0363880Y0118680D02*
X0359780Y0122780D01*
X0361902Y0124902D01*
X0366002Y0120802D01*
X0363880Y0118680D01*
G37*
G36*
X0361652Y0116453D02*
X0357552Y0120553D01*
X0359674Y0122675D01*
X0363774Y0118575D01*
X0361652Y0116453D01*
G37*
G36*
X0359425Y0114226D02*
X0355325Y0118326D01*
X0357447Y0120448D01*
X0361547Y0116348D01*
X0359425Y0114226D01*
G37*
G36*
X0357198Y0111998D02*
X0353098Y0116098D01*
X0355220Y0118220D01*
X0359320Y0114120D01*
X0357198Y0111998D01*
G37*
G36*
X0354971Y0109771D02*
X0350871Y0113871D01*
X0352993Y0115993D01*
X0357093Y0111893D01*
X0354971Y0109771D01*
G37*
G36*
X0352744Y0107544D02*
X0348644Y0111644D01*
X0350766Y0113766D01*
X0354866Y0109666D01*
X0352744Y0107544D01*
G37*
G36*
X0432744Y0107544D02*
X0428644Y0111644D01*
X0430766Y0113766D01*
X0434866Y0109666D01*
X0432744Y0107544D01*
G37*
G36*
X0434971Y0109771D02*
X0430871Y0113871D01*
X0432993Y0115993D01*
X0437093Y0111893D01*
X0434971Y0109771D01*
G37*
G36*
X0437198Y0111998D02*
X0433098Y0116098D01*
X0435220Y0118220D01*
X0439320Y0114120D01*
X0437198Y0111998D01*
G37*
G36*
X0439425Y0114226D02*
X0435325Y0118326D01*
X0437447Y0120448D01*
X0441547Y0116348D01*
X0439425Y0114226D01*
G37*
G36*
X0441652Y0116453D02*
X0437552Y0120553D01*
X0439674Y0122675D01*
X0443774Y0118575D01*
X0441652Y0116453D01*
G37*
G36*
X0443880Y0118680D02*
X0439780Y0122780D01*
X0441902Y0124902D01*
X0446002Y0120802D01*
X0443880Y0118680D01*
G37*
G36*
X0446107Y0120907D02*
X0442007Y0125007D01*
X0444129Y0127129D01*
X0448229Y0123029D01*
X0446107Y0120907D01*
G37*
G36*
X0448334Y0123134D02*
X0444234Y0127234D01*
X0446356Y0129356D01*
X0450456Y0125256D01*
X0448334Y0123134D01*
G37*
G36*
X0472234Y0099234D02*
X0468134Y0103334D01*
X0470256Y0105456D01*
X0474356Y0101356D01*
X0472234Y0099234D01*
G37*
G36*
X0470007Y0097007D02*
X0465907Y0101107D01*
X0468029Y0103229D01*
X0472129Y0099129D01*
X0470007Y0097007D01*
G37*
G36*
X0467780Y0094780D02*
X0463680Y0098880D01*
X0465802Y0101002D01*
X0469902Y0096902D01*
X0467780Y0094780D01*
G37*
G36*
X0465553Y0092552D02*
X0461453Y0096652D01*
X0463575Y0098774D01*
X0467675Y0094674D01*
X0465553Y0092552D01*
G37*
G36*
X0463326Y0090325D02*
X0459226Y0094425D01*
X0461348Y0096547D01*
X0465448Y0092447D01*
X0463326Y0090325D01*
G37*
G36*
X0461098Y0088098D02*
X0456998Y0092198D01*
X0459120Y0094320D01*
X0463220Y0090220D01*
X0461098Y0088098D01*
G37*
G36*
X0458871Y0085871D02*
X0454771Y0089971D01*
X0456893Y0092093D01*
X0460993Y0087993D01*
X0458871Y0085871D01*
G37*
G36*
X0456644Y0083644D02*
X0452544Y0087744D01*
X0454666Y0089866D01*
X0458766Y0085766D01*
X0456644Y0083644D01*
G37*
G36*
X0512744Y0107544D02*
X0508644Y0111644D01*
X0510766Y0113766D01*
X0514866Y0109666D01*
X0512744Y0107544D01*
G37*
G36*
X0514971Y0109771D02*
X0510871Y0113871D01*
X0512993Y0115993D01*
X0517093Y0111893D01*
X0514971Y0109771D01*
G37*
G36*
X0517198Y0111998D02*
X0513098Y0116098D01*
X0515220Y0118220D01*
X0519320Y0114120D01*
X0517198Y0111998D01*
G37*
G36*
X0519425Y0114226D02*
X0515325Y0118326D01*
X0517447Y0120448D01*
X0521547Y0116348D01*
X0519425Y0114226D01*
G37*
G36*
X0521652Y0116453D02*
X0517552Y0120553D01*
X0519674Y0122675D01*
X0523774Y0118575D01*
X0521652Y0116453D01*
G37*
G36*
X0523880Y0118680D02*
X0519780Y0122780D01*
X0521902Y0124902D01*
X0526002Y0120802D01*
X0523880Y0118680D01*
G37*
G36*
X0526107Y0120907D02*
X0522007Y0125007D01*
X0524129Y0127129D01*
X0528229Y0123029D01*
X0526107Y0120907D01*
G37*
G36*
X0528334Y0123134D02*
X0524234Y0127234D01*
X0526356Y0129356D01*
X0530456Y0125256D01*
X0528334Y0123134D01*
G37*
G36*
X0552234Y0099234D02*
X0548134Y0103334D01*
X0550256Y0105456D01*
X0554356Y0101356D01*
X0552234Y0099234D01*
G37*
G36*
X0550007Y0097007D02*
X0545907Y0101107D01*
X0548029Y0103229D01*
X0552129Y0099129D01*
X0550007Y0097007D01*
G37*
G36*
X0547780Y0094780D02*
X0543680Y0098880D01*
X0545802Y0101002D01*
X0549902Y0096902D01*
X0547780Y0094780D01*
G37*
G36*
X0545553Y0092552D02*
X0541453Y0096652D01*
X0543575Y0098774D01*
X0547675Y0094674D01*
X0545553Y0092552D01*
G37*
G36*
X0543326Y0090325D02*
X0539226Y0094425D01*
X0541348Y0096547D01*
X0545448Y0092447D01*
X0543326Y0090325D01*
G37*
G36*
X0541098Y0088098D02*
X0536998Y0092198D01*
X0539120Y0094320D01*
X0543220Y0090220D01*
X0541098Y0088098D01*
G37*
G36*
X0538871Y0085871D02*
X0534771Y0089971D01*
X0536893Y0092093D01*
X0540993Y0087993D01*
X0538871Y0085871D01*
G37*
G36*
X0536644Y0083644D02*
X0532544Y0087744D01*
X0534666Y0089866D01*
X0538766Y0085766D01*
X0536644Y0083644D01*
G37*
G36*
X0592744Y0107544D02*
X0588644Y0111644D01*
X0590766Y0113766D01*
X0594866Y0109666D01*
X0592744Y0107544D01*
G37*
G36*
X0594971Y0109771D02*
X0590871Y0113871D01*
X0592993Y0115993D01*
X0597093Y0111893D01*
X0594971Y0109771D01*
G37*
G36*
X0597198Y0111998D02*
X0593098Y0116098D01*
X0595220Y0118220D01*
X0599320Y0114120D01*
X0597198Y0111998D01*
G37*
G36*
X0599425Y0114226D02*
X0595325Y0118326D01*
X0597447Y0120448D01*
X0601547Y0116348D01*
X0599425Y0114226D01*
G37*
G36*
X0601652Y0116453D02*
X0597552Y0120553D01*
X0599674Y0122675D01*
X0603774Y0118575D01*
X0601652Y0116453D01*
G37*
G36*
X0603880Y0118680D02*
X0599780Y0122780D01*
X0601902Y0124902D01*
X0606002Y0120802D01*
X0603880Y0118680D01*
G37*
G36*
X0606107Y0120907D02*
X0602007Y0125007D01*
X0604129Y0127129D01*
X0608229Y0123029D01*
X0606107Y0120907D01*
G37*
G36*
X0608334Y0123134D02*
X0604234Y0127234D01*
X0606356Y0129356D01*
X0610456Y0125256D01*
X0608334Y0123134D01*
G37*
G36*
X0632234Y0099234D02*
X0628134Y0103334D01*
X0630256Y0105456D01*
X0634356Y0101356D01*
X0632234Y0099234D01*
G37*
G36*
X0630007Y0097007D02*
X0625907Y0101107D01*
X0628029Y0103229D01*
X0632129Y0099129D01*
X0630007Y0097007D01*
G37*
G36*
X0627780Y0094780D02*
X0623680Y0098880D01*
X0625802Y0101002D01*
X0629902Y0096902D01*
X0627780Y0094780D01*
G37*
G36*
X0625553Y0092552D02*
X0621453Y0096652D01*
X0623575Y0098774D01*
X0627675Y0094674D01*
X0625553Y0092552D01*
G37*
G36*
X0623326Y0090325D02*
X0619226Y0094425D01*
X0621348Y0096547D01*
X0625448Y0092447D01*
X0623326Y0090325D01*
G37*
G36*
X0621098Y0088098D02*
X0616998Y0092198D01*
X0619120Y0094320D01*
X0623220Y0090220D01*
X0621098Y0088098D01*
G37*
G36*
X0618871Y0085871D02*
X0614771Y0089971D01*
X0616893Y0092093D01*
X0620993Y0087993D01*
X0618871Y0085871D01*
G37*
G36*
X0616644Y0083644D02*
X0612544Y0087744D01*
X0614666Y0089866D01*
X0618766Y0085766D01*
X0616644Y0083644D01*
G37*
G36*
X0672744Y0107544D02*
X0668644Y0111644D01*
X0670766Y0113766D01*
X0674866Y0109666D01*
X0672744Y0107544D01*
G37*
G36*
X0674971Y0109771D02*
X0670871Y0113871D01*
X0672993Y0115993D01*
X0677093Y0111893D01*
X0674971Y0109771D01*
G37*
G36*
X0677198Y0111998D02*
X0673098Y0116098D01*
X0675220Y0118220D01*
X0679320Y0114120D01*
X0677198Y0111998D01*
G37*
G36*
X0679425Y0114226D02*
X0675325Y0118326D01*
X0677447Y0120448D01*
X0681547Y0116348D01*
X0679425Y0114226D01*
G37*
G36*
X0681652Y0116453D02*
X0677552Y0120553D01*
X0679674Y0122675D01*
X0683774Y0118575D01*
X0681652Y0116453D01*
G37*
G36*
X0683880Y0118680D02*
X0679780Y0122780D01*
X0681902Y0124902D01*
X0686002Y0120802D01*
X0683880Y0118680D01*
G37*
G36*
X0686107Y0120907D02*
X0682007Y0125007D01*
X0684129Y0127129D01*
X0688229Y0123029D01*
X0686107Y0120907D01*
G37*
G36*
X0688334Y0123134D02*
X0684234Y0127234D01*
X0686356Y0129356D01*
X0690456Y0125256D01*
X0688334Y0123134D01*
G37*
G36*
X0712234Y0099234D02*
X0708134Y0103334D01*
X0710256Y0105456D01*
X0714356Y0101356D01*
X0712234Y0099234D01*
G37*
G36*
X0710007Y0097007D02*
X0705907Y0101107D01*
X0708029Y0103229D01*
X0712129Y0099129D01*
X0710007Y0097007D01*
G37*
G36*
X0707780Y0094780D02*
X0703680Y0098880D01*
X0705802Y0101002D01*
X0709902Y0096902D01*
X0707780Y0094780D01*
G37*
G36*
X0705553Y0092552D02*
X0701453Y0096652D01*
X0703575Y0098774D01*
X0707675Y0094674D01*
X0705553Y0092552D01*
G37*
G36*
X0703326Y0090325D02*
X0699226Y0094425D01*
X0701348Y0096547D01*
X0705448Y0092447D01*
X0703326Y0090325D01*
G37*
G36*
X0701098Y0088098D02*
X0696998Y0092198D01*
X0699120Y0094320D01*
X0703220Y0090220D01*
X0701098Y0088098D01*
G37*
G36*
X0698871Y0085871D02*
X0694771Y0089971D01*
X0696893Y0092093D01*
X0700993Y0087993D01*
X0698871Y0085871D01*
G37*
G36*
X0696644Y0083644D02*
X0692544Y0087744D01*
X0694666Y0089866D01*
X0698766Y0085766D01*
X0696644Y0083644D01*
G37*
G36*
X0752744Y0107544D02*
X0748644Y0111644D01*
X0750766Y0113766D01*
X0754866Y0109666D01*
X0752744Y0107544D01*
G37*
G36*
X0754971Y0109771D02*
X0750871Y0113871D01*
X0752993Y0115993D01*
X0757093Y0111893D01*
X0754971Y0109771D01*
G37*
G36*
X0757198Y0111998D02*
X0753098Y0116098D01*
X0755220Y0118220D01*
X0759320Y0114120D01*
X0757198Y0111998D01*
G37*
G36*
X0759425Y0114226D02*
X0755325Y0118326D01*
X0757447Y0120448D01*
X0761547Y0116348D01*
X0759425Y0114226D01*
G37*
G36*
X0761652Y0116453D02*
X0757552Y0120553D01*
X0759674Y0122675D01*
X0763774Y0118575D01*
X0761652Y0116453D01*
G37*
G36*
X0763880Y0118680D02*
X0759780Y0122780D01*
X0761902Y0124902D01*
X0766002Y0120802D01*
X0763880Y0118680D01*
G37*
G36*
X0766107Y0120907D02*
X0762007Y0125007D01*
X0764129Y0127129D01*
X0768229Y0123029D01*
X0766107Y0120907D01*
G37*
G36*
X0768334Y0123134D02*
X0764234Y0127234D01*
X0766356Y0129356D01*
X0770456Y0125256D01*
X0768334Y0123134D01*
G37*
G36*
X0792234Y0099234D02*
X0788134Y0103334D01*
X0790256Y0105456D01*
X0794356Y0101356D01*
X0792234Y0099234D01*
G37*
G36*
X0790007Y0097007D02*
X0785907Y0101107D01*
X0788029Y0103229D01*
X0792129Y0099129D01*
X0790007Y0097007D01*
G37*
G36*
X0787780Y0094780D02*
X0783680Y0098880D01*
X0785802Y0101002D01*
X0789902Y0096902D01*
X0787780Y0094780D01*
G37*
G36*
X0785553Y0092552D02*
X0781453Y0096652D01*
X0783575Y0098774D01*
X0787675Y0094674D01*
X0785553Y0092552D01*
G37*
G36*
X0783326Y0090325D02*
X0779226Y0094425D01*
X0781348Y0096547D01*
X0785448Y0092447D01*
X0783326Y0090325D01*
G37*
G36*
X0781098Y0088098D02*
X0776998Y0092198D01*
X0779120Y0094320D01*
X0783220Y0090220D01*
X0781098Y0088098D01*
G37*
G36*
X0778871Y0085871D02*
X0774771Y0089971D01*
X0776893Y0092093D01*
X0780993Y0087993D01*
X0778871Y0085871D01*
G37*
G36*
X0776644Y0083644D02*
X0772544Y0087744D01*
X0774666Y0089866D01*
X0778766Y0085766D01*
X0776644Y0083644D01*
G37*
G36*
X0776644Y0372644D02*
X0772544Y0376744D01*
X0774666Y0378866D01*
X0778766Y0374766D01*
X0776644Y0372644D01*
G37*
G36*
X0778871Y0374871D02*
X0774771Y0378971D01*
X0776893Y0381093D01*
X0780993Y0376993D01*
X0778871Y0374871D01*
G37*
G36*
X0781098Y0377098D02*
X0776998Y0381198D01*
X0779120Y0383320D01*
X0783220Y0379220D01*
X0781098Y0377098D01*
G37*
G36*
X0783326Y0379325D02*
X0779226Y0383425D01*
X0781348Y0385547D01*
X0785448Y0381447D01*
X0783326Y0379325D01*
G37*
G36*
X0785553Y0381552D02*
X0781453Y0385652D01*
X0783575Y0387774D01*
X0787675Y0383674D01*
X0785553Y0381552D01*
G37*
G36*
X0787780Y0383780D02*
X0783680Y0387880D01*
X0785802Y0390002D01*
X0789902Y0385902D01*
X0787780Y0383780D01*
G37*
G36*
X0790007Y0386007D02*
X0785907Y0390107D01*
X0788029Y0392229D01*
X0792129Y0388129D01*
X0790007Y0386007D01*
G37*
G36*
X0792234Y0388234D02*
X0788134Y0392334D01*
X0790256Y0394456D01*
X0794356Y0390356D01*
X0792234Y0388234D01*
G37*
G36*
X0766107Y0409907D02*
X0762007Y0414007D01*
X0764129Y0416129D01*
X0768229Y0412029D01*
X0766107Y0409907D01*
G37*
G36*
X0763880Y0407680D02*
X0759780Y0411780D01*
X0761902Y0413902D01*
X0766002Y0409802D01*
X0763880Y0407680D01*
G37*
G36*
X0761652Y0405453D02*
X0757552Y0409553D01*
X0759674Y0411675D01*
X0763774Y0407575D01*
X0761652Y0405453D01*
G37*
G36*
X0759425Y0403226D02*
X0755325Y0407326D01*
X0757447Y0409448D01*
X0761547Y0405348D01*
X0759425Y0403226D01*
G37*
G36*
X0757198Y0400998D02*
X0753098Y0405098D01*
X0755220Y0407220D01*
X0759320Y0403120D01*
X0757198Y0400998D01*
G37*
G36*
X0754971Y0398771D02*
X0750871Y0402871D01*
X0752993Y0404993D01*
X0757093Y0400893D01*
X0754971Y0398771D01*
G37*
G36*
X0752744Y0396544D02*
X0748644Y0400644D01*
X0750766Y0402766D01*
X0754866Y0398666D01*
X0752744Y0396544D01*
G37*
G36*
X0768334Y0412134D02*
X0764234Y0416234D01*
X0766356Y0418356D01*
X0770456Y0414256D01*
X0768334Y0412134D01*
G37*
G36*
X0712234Y0388234D02*
X0708134Y0392334D01*
X0710256Y0394456D01*
X0714356Y0390356D01*
X0712234Y0388234D01*
G37*
G36*
X0710007Y0386007D02*
X0705907Y0390107D01*
X0708029Y0392229D01*
X0712129Y0388129D01*
X0710007Y0386007D01*
G37*
G36*
X0707780Y0383780D02*
X0703680Y0387880D01*
X0705802Y0390002D01*
X0709902Y0385902D01*
X0707780Y0383780D01*
G37*
G36*
X0705553Y0381552D02*
X0701453Y0385652D01*
X0703575Y0387774D01*
X0707675Y0383674D01*
X0705553Y0381552D01*
G37*
G36*
X0703326Y0379325D02*
X0699226Y0383425D01*
X0701348Y0385547D01*
X0705448Y0381447D01*
X0703326Y0379325D01*
G37*
G36*
X0701098Y0377098D02*
X0696998Y0381198D01*
X0699120Y0383320D01*
X0703220Y0379220D01*
X0701098Y0377098D01*
G37*
G36*
X0698871Y0374871D02*
X0694771Y0378971D01*
X0696893Y0381093D01*
X0700993Y0376993D01*
X0698871Y0374871D01*
G37*
G36*
X0696644Y0372644D02*
X0692544Y0376744D01*
X0694666Y0378866D01*
X0698766Y0374766D01*
X0696644Y0372644D01*
G37*
G36*
X0672744Y0396544D02*
X0668644Y0400644D01*
X0670766Y0402766D01*
X0674866Y0398666D01*
X0672744Y0396544D01*
G37*
G36*
X0674971Y0398771D02*
X0670871Y0402871D01*
X0672993Y0404993D01*
X0677093Y0400893D01*
X0674971Y0398771D01*
G37*
G36*
X0677198Y0400998D02*
X0673098Y0405098D01*
X0675220Y0407220D01*
X0679320Y0403120D01*
X0677198Y0400998D01*
G37*
G36*
X0679425Y0403226D02*
X0675325Y0407326D01*
X0677447Y0409448D01*
X0681547Y0405348D01*
X0679425Y0403226D01*
G37*
G36*
X0681652Y0405453D02*
X0677552Y0409553D01*
X0679674Y0411675D01*
X0683774Y0407575D01*
X0681652Y0405453D01*
G37*
G36*
X0683880Y0407680D02*
X0679780Y0411780D01*
X0681902Y0413902D01*
X0686002Y0409802D01*
X0683880Y0407680D01*
G37*
G36*
X0686107Y0409907D02*
X0682007Y0414007D01*
X0684129Y0416129D01*
X0688229Y0412029D01*
X0686107Y0409907D01*
G37*
G36*
X0688334Y0412134D02*
X0684234Y0416234D01*
X0686356Y0418356D01*
X0690456Y0414256D01*
X0688334Y0412134D01*
G37*
G36*
X0632234Y0388234D02*
X0628134Y0392334D01*
X0630256Y0394456D01*
X0634356Y0390356D01*
X0632234Y0388234D01*
G37*
G36*
X0630007Y0386007D02*
X0625907Y0390107D01*
X0628029Y0392229D01*
X0632129Y0388129D01*
X0630007Y0386007D01*
G37*
G36*
X0627780Y0383780D02*
X0623680Y0387880D01*
X0625802Y0390002D01*
X0629902Y0385902D01*
X0627780Y0383780D01*
G37*
G36*
X0625553Y0381552D02*
X0621453Y0385652D01*
X0623575Y0387774D01*
X0627675Y0383674D01*
X0625553Y0381552D01*
G37*
G36*
X0623326Y0379325D02*
X0619226Y0383425D01*
X0621348Y0385547D01*
X0625448Y0381447D01*
X0623326Y0379325D01*
G37*
G36*
X0621098Y0377098D02*
X0616998Y0381198D01*
X0619120Y0383320D01*
X0623220Y0379220D01*
X0621098Y0377098D01*
G37*
G36*
X0618871Y0374871D02*
X0614771Y0378971D01*
X0616893Y0381093D01*
X0620993Y0376993D01*
X0618871Y0374871D01*
G37*
G36*
X0616644Y0372644D02*
X0612544Y0376744D01*
X0614666Y0378866D01*
X0618766Y0374766D01*
X0616644Y0372644D01*
G37*
G36*
X0592744Y0396544D02*
X0588644Y0400644D01*
X0590766Y0402766D01*
X0594866Y0398666D01*
X0592744Y0396544D01*
G37*
G36*
X0594971Y0398771D02*
X0590871Y0402871D01*
X0592993Y0404993D01*
X0597093Y0400893D01*
X0594971Y0398771D01*
G37*
G36*
X0597198Y0400998D02*
X0593098Y0405098D01*
X0595220Y0407220D01*
X0599320Y0403120D01*
X0597198Y0400998D01*
G37*
G36*
X0599425Y0403226D02*
X0595325Y0407326D01*
X0597447Y0409448D01*
X0601547Y0405348D01*
X0599425Y0403226D01*
G37*
G36*
X0601652Y0405453D02*
X0597552Y0409553D01*
X0599674Y0411675D01*
X0603774Y0407575D01*
X0601652Y0405453D01*
G37*
G36*
X0603880Y0407680D02*
X0599780Y0411780D01*
X0601902Y0413902D01*
X0606002Y0409802D01*
X0603880Y0407680D01*
G37*
G36*
X0606107Y0409907D02*
X0602007Y0414007D01*
X0604129Y0416129D01*
X0608229Y0412029D01*
X0606107Y0409907D01*
G37*
G36*
X0608334Y0412134D02*
X0604234Y0416234D01*
X0606356Y0418356D01*
X0610456Y0414256D01*
X0608334Y0412134D01*
G37*
G36*
X0552234Y0388234D02*
X0548134Y0392334D01*
X0550256Y0394456D01*
X0554356Y0390356D01*
X0552234Y0388234D01*
G37*
G36*
X0550007Y0386007D02*
X0545907Y0390107D01*
X0548029Y0392229D01*
X0552129Y0388129D01*
X0550007Y0386007D01*
G37*
G36*
X0547780Y0383780D02*
X0543680Y0387880D01*
X0545802Y0390002D01*
X0549902Y0385902D01*
X0547780Y0383780D01*
G37*
G36*
X0545553Y0381552D02*
X0541453Y0385652D01*
X0543575Y0387774D01*
X0547675Y0383674D01*
X0545553Y0381552D01*
G37*
G36*
X0543326Y0379325D02*
X0539226Y0383425D01*
X0541348Y0385547D01*
X0545448Y0381447D01*
X0543326Y0379325D01*
G37*
G36*
X0541098Y0377098D02*
X0536998Y0381198D01*
X0539120Y0383320D01*
X0543220Y0379220D01*
X0541098Y0377098D01*
G37*
G36*
X0538871Y0374871D02*
X0534771Y0378971D01*
X0536893Y0381093D01*
X0540993Y0376993D01*
X0538871Y0374871D01*
G37*
G36*
X0536644Y0372644D02*
X0532544Y0376744D01*
X0534666Y0378866D01*
X0538766Y0374766D01*
X0536644Y0372644D01*
G37*
G36*
X0512744Y0396544D02*
X0508644Y0400644D01*
X0510766Y0402766D01*
X0514866Y0398666D01*
X0512744Y0396544D01*
G37*
G36*
X0514971Y0398771D02*
X0510871Y0402871D01*
X0512993Y0404993D01*
X0517093Y0400893D01*
X0514971Y0398771D01*
G37*
G36*
X0517198Y0400998D02*
X0513098Y0405098D01*
X0515220Y0407220D01*
X0519320Y0403120D01*
X0517198Y0400998D01*
G37*
G36*
X0519425Y0403226D02*
X0515325Y0407326D01*
X0517447Y0409448D01*
X0521547Y0405348D01*
X0519425Y0403226D01*
G37*
G36*
X0521652Y0405453D02*
X0517552Y0409553D01*
X0519674Y0411675D01*
X0523774Y0407575D01*
X0521652Y0405453D01*
G37*
G36*
X0523880Y0407680D02*
X0519780Y0411780D01*
X0521902Y0413902D01*
X0526002Y0409802D01*
X0523880Y0407680D01*
G37*
G36*
X0526107Y0409907D02*
X0522007Y0414007D01*
X0524129Y0416129D01*
X0528229Y0412029D01*
X0526107Y0409907D01*
G37*
G36*
X0528334Y0412134D02*
X0524234Y0416234D01*
X0526356Y0418356D01*
X0530456Y0414256D01*
X0528334Y0412134D01*
G37*
G36*
X0472234Y0388234D02*
X0468134Y0392334D01*
X0470256Y0394456D01*
X0474356Y0390356D01*
X0472234Y0388234D01*
G37*
G36*
X0470007Y0386007D02*
X0465907Y0390107D01*
X0468029Y0392229D01*
X0472129Y0388129D01*
X0470007Y0386007D01*
G37*
G36*
X0467780Y0383780D02*
X0463680Y0387880D01*
X0465802Y0390002D01*
X0469902Y0385902D01*
X0467780Y0383780D01*
G37*
G36*
X0465553Y0381552D02*
X0461453Y0385652D01*
X0463575Y0387774D01*
X0467675Y0383674D01*
X0465553Y0381552D01*
G37*
G36*
X0463326Y0379325D02*
X0459226Y0383425D01*
X0461348Y0385547D01*
X0465448Y0381447D01*
X0463326Y0379325D01*
G37*
G36*
X0461098Y0377098D02*
X0456998Y0381198D01*
X0459120Y0383320D01*
X0463220Y0379220D01*
X0461098Y0377098D01*
G37*
G36*
X0458871Y0374871D02*
X0454771Y0378971D01*
X0456893Y0381093D01*
X0460993Y0376993D01*
X0458871Y0374871D01*
G37*
G36*
X0456644Y0372644D02*
X0452544Y0376744D01*
X0454666Y0378866D01*
X0458766Y0374766D01*
X0456644Y0372644D01*
G37*
G36*
X0432744Y0396544D02*
X0428644Y0400644D01*
X0430766Y0402766D01*
X0434866Y0398666D01*
X0432744Y0396544D01*
G37*
G36*
X0434971Y0398771D02*
X0430871Y0402871D01*
X0432993Y0404993D01*
X0437093Y0400893D01*
X0434971Y0398771D01*
G37*
G36*
X0437198Y0400998D02*
X0433098Y0405098D01*
X0435220Y0407220D01*
X0439320Y0403120D01*
X0437198Y0400998D01*
G37*
G36*
X0439425Y0403226D02*
X0435325Y0407326D01*
X0437447Y0409448D01*
X0441547Y0405348D01*
X0439425Y0403226D01*
G37*
G36*
X0441652Y0405453D02*
X0437552Y0409553D01*
X0439674Y0411675D01*
X0443774Y0407575D01*
X0441652Y0405453D01*
G37*
G36*
X0443880Y0407680D02*
X0439780Y0411780D01*
X0441902Y0413902D01*
X0446002Y0409802D01*
X0443880Y0407680D01*
G37*
G36*
X0446107Y0409907D02*
X0442007Y0414007D01*
X0444129Y0416129D01*
X0448229Y0412029D01*
X0446107Y0409907D01*
G37*
G36*
X0448334Y0412134D02*
X0444234Y0416234D01*
X0446356Y0418356D01*
X0450456Y0414256D01*
X0448334Y0412134D01*
G37*
G36*
X0392234Y0388234D02*
X0388134Y0392334D01*
X0390256Y0394456D01*
X0394356Y0390356D01*
X0392234Y0388234D01*
G37*
G36*
X0390007Y0386007D02*
X0385907Y0390107D01*
X0388029Y0392229D01*
X0392129Y0388129D01*
X0390007Y0386007D01*
G37*
G36*
X0387780Y0383780D02*
X0383680Y0387880D01*
X0385802Y0390002D01*
X0389902Y0385902D01*
X0387780Y0383780D01*
G37*
G36*
X0385553Y0381552D02*
X0381453Y0385652D01*
X0383575Y0387774D01*
X0387675Y0383674D01*
X0385553Y0381552D01*
G37*
G36*
X0383326Y0379325D02*
X0379226Y0383425D01*
X0381348Y0385547D01*
X0385448Y0381447D01*
X0383326Y0379325D01*
G37*
G36*
X0381098Y0377098D02*
X0376998Y0381198D01*
X0379120Y0383320D01*
X0383220Y0379220D01*
X0381098Y0377098D01*
G37*
G36*
X0378871Y0374871D02*
X0374771Y0378971D01*
X0376893Y0381093D01*
X0380993Y0376993D01*
X0378871Y0374871D01*
G37*
G36*
X0376644Y0372644D02*
X0372544Y0376744D01*
X0374666Y0378866D01*
X0378766Y0374766D01*
X0376644Y0372644D01*
G37*
G36*
X0352744Y0396544D02*
X0348644Y0400644D01*
X0350766Y0402766D01*
X0354866Y0398666D01*
X0352744Y0396544D01*
G37*
G36*
X0354971Y0398771D02*
X0350871Y0402871D01*
X0352993Y0404993D01*
X0357093Y0400893D01*
X0354971Y0398771D01*
G37*
G36*
X0357198Y0400998D02*
X0353098Y0405098D01*
X0355220Y0407220D01*
X0359320Y0403120D01*
X0357198Y0400998D01*
G37*
G36*
X0359425Y0403226D02*
X0355325Y0407326D01*
X0357447Y0409448D01*
X0361547Y0405348D01*
X0359425Y0403226D01*
G37*
G36*
X0361652Y0405453D02*
X0357552Y0409553D01*
X0359674Y0411675D01*
X0363774Y0407575D01*
X0361652Y0405453D01*
G37*
G36*
X0363880Y0407680D02*
X0359780Y0411780D01*
X0361902Y0413902D01*
X0366002Y0409802D01*
X0363880Y0407680D01*
G37*
G36*
X0366107Y0409907D02*
X0362007Y0414007D01*
X0364129Y0416129D01*
X0368229Y0412029D01*
X0366107Y0409907D01*
G37*
G36*
X0368334Y0412134D02*
X0364234Y0416234D01*
X0366356Y0418356D01*
X0370456Y0414256D01*
X0368334Y0412134D01*
G37*
D21*
G36*
X0374666Y0412134D02*
X0372544Y0414256D01*
X0376644Y0418356D01*
X0378766Y0416234D01*
X0374666Y0412134D01*
G37*
G36*
X0376893Y0409907D02*
X0374771Y0412029D01*
X0378871Y0416129D01*
X0380993Y0414007D01*
X0376893Y0409907D01*
G37*
G36*
X0379120Y0407680D02*
X0376998Y0409802D01*
X0381098Y0413902D01*
X0383220Y0411780D01*
X0379120Y0407680D01*
G37*
G36*
X0381348Y0405453D02*
X0379226Y0407575D01*
X0383326Y0411675D01*
X0385448Y0409553D01*
X0381348Y0405453D01*
G37*
G36*
X0383575Y0403226D02*
X0381453Y0405348D01*
X0385553Y0409448D01*
X0387675Y0407326D01*
X0383575Y0403226D01*
G37*
G36*
X0385802Y0400998D02*
X0383680Y0403120D01*
X0387780Y0407220D01*
X0389902Y0405098D01*
X0385802Y0400998D01*
G37*
G36*
X0388029Y0398771D02*
X0385907Y0400893D01*
X0390007Y0404993D01*
X0392129Y0402871D01*
X0388029Y0398771D01*
G37*
G36*
X0390256Y0396544D02*
X0388134Y0398666D01*
X0392234Y0402766D01*
X0394356Y0400644D01*
X0390256Y0396544D01*
G37*
G36*
X0364129Y0374871D02*
X0362007Y0376993D01*
X0366107Y0381093D01*
X0368229Y0378971D01*
X0364129Y0374871D01*
G37*
G36*
X0366356Y0372644D02*
X0364234Y0374766D01*
X0368334Y0378866D01*
X0370456Y0376744D01*
X0366356Y0372644D01*
G37*
G36*
X0361902Y0377098D02*
X0359780Y0379220D01*
X0363880Y0383320D01*
X0366002Y0381198D01*
X0361902Y0377098D01*
G37*
G36*
X0359674Y0379325D02*
X0357552Y0381447D01*
X0361652Y0385547D01*
X0363774Y0383425D01*
X0359674Y0379325D01*
G37*
G36*
X0357447Y0381552D02*
X0355325Y0383674D01*
X0359425Y0387774D01*
X0361547Y0385652D01*
X0357447Y0381552D01*
G37*
G36*
X0355220Y0383780D02*
X0353098Y0385902D01*
X0357198Y0390002D01*
X0359320Y0387880D01*
X0355220Y0383780D01*
G37*
G36*
X0352993Y0386007D02*
X0350871Y0388129D01*
X0354971Y0392229D01*
X0357093Y0390107D01*
X0352993Y0386007D01*
G37*
G36*
X0350766Y0388234D02*
X0348644Y0390356D01*
X0352744Y0394456D01*
X0354866Y0392334D01*
X0350766Y0388234D01*
G37*
G36*
X0430766Y0388234D02*
X0428644Y0390356D01*
X0432744Y0394456D01*
X0434866Y0392334D01*
X0430766Y0388234D01*
G37*
G36*
X0432993Y0386007D02*
X0430871Y0388129D01*
X0434971Y0392229D01*
X0437093Y0390107D01*
X0432993Y0386007D01*
G37*
G36*
X0435220Y0383780D02*
X0433098Y0385902D01*
X0437198Y0390002D01*
X0439320Y0387880D01*
X0435220Y0383780D01*
G37*
G36*
X0437447Y0381552D02*
X0435325Y0383674D01*
X0439425Y0387774D01*
X0441547Y0385652D01*
X0437447Y0381552D01*
G37*
G36*
X0439674Y0379325D02*
X0437552Y0381447D01*
X0441652Y0385547D01*
X0443774Y0383425D01*
X0439674Y0379325D01*
G37*
G36*
X0441902Y0377098D02*
X0439780Y0379220D01*
X0443880Y0383320D01*
X0446002Y0381198D01*
X0441902Y0377098D01*
G37*
G36*
X0444129Y0374871D02*
X0442007Y0376993D01*
X0446107Y0381093D01*
X0448229Y0378971D01*
X0444129Y0374871D01*
G37*
G36*
X0446356Y0372644D02*
X0444234Y0374766D01*
X0448334Y0378866D01*
X0450456Y0376744D01*
X0446356Y0372644D01*
G37*
G36*
X0470256Y0396544D02*
X0468134Y0398666D01*
X0472234Y0402766D01*
X0474356Y0400644D01*
X0470256Y0396544D01*
G37*
G36*
X0468029Y0398771D02*
X0465907Y0400893D01*
X0470007Y0404993D01*
X0472129Y0402871D01*
X0468029Y0398771D01*
G37*
G36*
X0465802Y0400998D02*
X0463680Y0403120D01*
X0467780Y0407220D01*
X0469902Y0405098D01*
X0465802Y0400998D01*
G37*
G36*
X0463575Y0403226D02*
X0461453Y0405348D01*
X0465553Y0409448D01*
X0467675Y0407326D01*
X0463575Y0403226D01*
G37*
G36*
X0461348Y0405453D02*
X0459226Y0407575D01*
X0463326Y0411675D01*
X0465448Y0409553D01*
X0461348Y0405453D01*
G37*
G36*
X0459120Y0407680D02*
X0456998Y0409802D01*
X0461098Y0413902D01*
X0463220Y0411780D01*
X0459120Y0407680D01*
G37*
G36*
X0456893Y0409907D02*
X0454771Y0412029D01*
X0458871Y0416129D01*
X0460993Y0414007D01*
X0456893Y0409907D01*
G37*
G36*
X0454666Y0412134D02*
X0452544Y0414256D01*
X0456644Y0418356D01*
X0458766Y0416234D01*
X0454666Y0412134D01*
G37*
G36*
X0510766Y0388234D02*
X0508644Y0390356D01*
X0512744Y0394456D01*
X0514866Y0392334D01*
X0510766Y0388234D01*
G37*
G36*
X0512993Y0386007D02*
X0510871Y0388129D01*
X0514971Y0392229D01*
X0517093Y0390107D01*
X0512993Y0386007D01*
G37*
G36*
X0515220Y0383780D02*
X0513098Y0385902D01*
X0517198Y0390002D01*
X0519320Y0387880D01*
X0515220Y0383780D01*
G37*
G36*
X0517447Y0381552D02*
X0515325Y0383674D01*
X0519425Y0387774D01*
X0521547Y0385652D01*
X0517447Y0381552D01*
G37*
G36*
X0519674Y0379325D02*
X0517552Y0381447D01*
X0521652Y0385547D01*
X0523774Y0383425D01*
X0519674Y0379325D01*
G37*
G36*
X0521902Y0377098D02*
X0519780Y0379220D01*
X0523880Y0383320D01*
X0526002Y0381198D01*
X0521902Y0377098D01*
G37*
G36*
X0524129Y0374871D02*
X0522007Y0376993D01*
X0526107Y0381093D01*
X0528229Y0378971D01*
X0524129Y0374871D01*
G37*
G36*
X0526356Y0372644D02*
X0524234Y0374766D01*
X0528334Y0378866D01*
X0530456Y0376744D01*
X0526356Y0372644D01*
G37*
G36*
X0550256Y0396544D02*
X0548134Y0398666D01*
X0552234Y0402766D01*
X0554356Y0400644D01*
X0550256Y0396544D01*
G37*
G36*
X0548029Y0398771D02*
X0545907Y0400893D01*
X0550007Y0404993D01*
X0552129Y0402871D01*
X0548029Y0398771D01*
G37*
G36*
X0545802Y0400998D02*
X0543680Y0403120D01*
X0547780Y0407220D01*
X0549902Y0405098D01*
X0545802Y0400998D01*
G37*
G36*
X0543575Y0403226D02*
X0541453Y0405348D01*
X0545553Y0409448D01*
X0547675Y0407326D01*
X0543575Y0403226D01*
G37*
G36*
X0541348Y0405453D02*
X0539226Y0407575D01*
X0543326Y0411675D01*
X0545448Y0409553D01*
X0541348Y0405453D01*
G37*
G36*
X0539120Y0407680D02*
X0536998Y0409802D01*
X0541098Y0413902D01*
X0543220Y0411780D01*
X0539120Y0407680D01*
G37*
G36*
X0536893Y0409907D02*
X0534771Y0412029D01*
X0538871Y0416129D01*
X0540993Y0414007D01*
X0536893Y0409907D01*
G37*
G36*
X0534666Y0412134D02*
X0532544Y0414256D01*
X0536644Y0418356D01*
X0538766Y0416234D01*
X0534666Y0412134D01*
G37*
G36*
X0590766Y0388234D02*
X0588644Y0390356D01*
X0592744Y0394456D01*
X0594866Y0392334D01*
X0590766Y0388234D01*
G37*
G36*
X0592993Y0386007D02*
X0590871Y0388129D01*
X0594971Y0392229D01*
X0597093Y0390107D01*
X0592993Y0386007D01*
G37*
G36*
X0595220Y0383780D02*
X0593098Y0385902D01*
X0597198Y0390002D01*
X0599320Y0387880D01*
X0595220Y0383780D01*
G37*
G36*
X0597447Y0381552D02*
X0595325Y0383674D01*
X0599425Y0387774D01*
X0601547Y0385652D01*
X0597447Y0381552D01*
G37*
G36*
X0599674Y0379325D02*
X0597552Y0381447D01*
X0601652Y0385547D01*
X0603774Y0383425D01*
X0599674Y0379325D01*
G37*
G36*
X0601902Y0377098D02*
X0599780Y0379220D01*
X0603880Y0383320D01*
X0606002Y0381198D01*
X0601902Y0377098D01*
G37*
G36*
X0604129Y0374871D02*
X0602007Y0376993D01*
X0606107Y0381093D01*
X0608229Y0378971D01*
X0604129Y0374871D01*
G37*
G36*
X0606356Y0372644D02*
X0604234Y0374766D01*
X0608334Y0378866D01*
X0610456Y0376744D01*
X0606356Y0372644D01*
G37*
G36*
X0630256Y0396544D02*
X0628134Y0398666D01*
X0632234Y0402766D01*
X0634356Y0400644D01*
X0630256Y0396544D01*
G37*
G36*
X0628029Y0398771D02*
X0625907Y0400893D01*
X0630007Y0404993D01*
X0632129Y0402871D01*
X0628029Y0398771D01*
G37*
G36*
X0625802Y0400998D02*
X0623680Y0403120D01*
X0627780Y0407220D01*
X0629902Y0405098D01*
X0625802Y0400998D01*
G37*
G36*
X0623575Y0403226D02*
X0621453Y0405348D01*
X0625553Y0409448D01*
X0627675Y0407326D01*
X0623575Y0403226D01*
G37*
G36*
X0621348Y0405453D02*
X0619226Y0407575D01*
X0623326Y0411675D01*
X0625448Y0409553D01*
X0621348Y0405453D01*
G37*
G36*
X0619120Y0407680D02*
X0616998Y0409802D01*
X0621098Y0413902D01*
X0623220Y0411780D01*
X0619120Y0407680D01*
G37*
G36*
X0616893Y0409907D02*
X0614771Y0412029D01*
X0618871Y0416129D01*
X0620993Y0414007D01*
X0616893Y0409907D01*
G37*
G36*
X0614666Y0412134D02*
X0612544Y0414256D01*
X0616644Y0418356D01*
X0618766Y0416234D01*
X0614666Y0412134D01*
G37*
G36*
X0670766Y0388234D02*
X0668644Y0390356D01*
X0672744Y0394456D01*
X0674866Y0392334D01*
X0670766Y0388234D01*
G37*
G36*
X0672993Y0386007D02*
X0670871Y0388129D01*
X0674971Y0392229D01*
X0677093Y0390107D01*
X0672993Y0386007D01*
G37*
G36*
X0675220Y0383780D02*
X0673098Y0385902D01*
X0677198Y0390002D01*
X0679320Y0387880D01*
X0675220Y0383780D01*
G37*
G36*
X0677447Y0381552D02*
X0675325Y0383674D01*
X0679425Y0387774D01*
X0681547Y0385652D01*
X0677447Y0381552D01*
G37*
G36*
X0679674Y0379325D02*
X0677552Y0381447D01*
X0681652Y0385547D01*
X0683774Y0383425D01*
X0679674Y0379325D01*
G37*
G36*
X0681902Y0377098D02*
X0679780Y0379220D01*
X0683880Y0383320D01*
X0686002Y0381198D01*
X0681902Y0377098D01*
G37*
G36*
X0684129Y0374871D02*
X0682007Y0376993D01*
X0686107Y0381093D01*
X0688229Y0378971D01*
X0684129Y0374871D01*
G37*
G36*
X0686356Y0372644D02*
X0684234Y0374766D01*
X0688334Y0378866D01*
X0690456Y0376744D01*
X0686356Y0372644D01*
G37*
G36*
X0710256Y0396544D02*
X0708134Y0398666D01*
X0712234Y0402766D01*
X0714356Y0400644D01*
X0710256Y0396544D01*
G37*
G36*
X0708029Y0398771D02*
X0705907Y0400893D01*
X0710007Y0404993D01*
X0712129Y0402871D01*
X0708029Y0398771D01*
G37*
G36*
X0705802Y0400998D02*
X0703680Y0403120D01*
X0707780Y0407220D01*
X0709902Y0405098D01*
X0705802Y0400998D01*
G37*
G36*
X0703575Y0403226D02*
X0701453Y0405348D01*
X0705553Y0409448D01*
X0707675Y0407326D01*
X0703575Y0403226D01*
G37*
G36*
X0701348Y0405453D02*
X0699226Y0407575D01*
X0703326Y0411675D01*
X0705448Y0409553D01*
X0701348Y0405453D01*
G37*
G36*
X0699120Y0407680D02*
X0696998Y0409802D01*
X0701098Y0413902D01*
X0703220Y0411780D01*
X0699120Y0407680D01*
G37*
G36*
X0696893Y0409907D02*
X0694771Y0412029D01*
X0698871Y0416129D01*
X0700993Y0414007D01*
X0696893Y0409907D01*
G37*
G36*
X0694666Y0412134D02*
X0692544Y0414256D01*
X0696644Y0418356D01*
X0698766Y0416234D01*
X0694666Y0412134D01*
G37*
G36*
X0750766Y0388234D02*
X0748644Y0390356D01*
X0752744Y0394456D01*
X0754866Y0392334D01*
X0750766Y0388234D01*
G37*
G36*
X0752993Y0386007D02*
X0750871Y0388129D01*
X0754971Y0392229D01*
X0757093Y0390107D01*
X0752993Y0386007D01*
G37*
G36*
X0755220Y0383780D02*
X0753098Y0385902D01*
X0757198Y0390002D01*
X0759320Y0387880D01*
X0755220Y0383780D01*
G37*
G36*
X0757447Y0381552D02*
X0755325Y0383674D01*
X0759425Y0387774D01*
X0761547Y0385652D01*
X0757447Y0381552D01*
G37*
G36*
X0759674Y0379325D02*
X0757552Y0381447D01*
X0761652Y0385547D01*
X0763774Y0383425D01*
X0759674Y0379325D01*
G37*
G36*
X0761902Y0377098D02*
X0759780Y0379220D01*
X0763880Y0383320D01*
X0766002Y0381198D01*
X0761902Y0377098D01*
G37*
G36*
X0764129Y0374871D02*
X0762007Y0376993D01*
X0766107Y0381093D01*
X0768229Y0378971D01*
X0764129Y0374871D01*
G37*
G36*
X0766356Y0372644D02*
X0764234Y0374766D01*
X0768334Y0378866D01*
X0770456Y0376744D01*
X0766356Y0372644D01*
G37*
G36*
X0790256Y0396544D02*
X0788134Y0398666D01*
X0792234Y0402766D01*
X0794356Y0400644D01*
X0790256Y0396544D01*
G37*
G36*
X0788029Y0398771D02*
X0785907Y0400893D01*
X0790007Y0404993D01*
X0792129Y0402871D01*
X0788029Y0398771D01*
G37*
G36*
X0785802Y0400998D02*
X0783680Y0403120D01*
X0787780Y0407220D01*
X0789902Y0405098D01*
X0785802Y0400998D01*
G37*
G36*
X0783575Y0403226D02*
X0781453Y0405348D01*
X0785553Y0409448D01*
X0787675Y0407326D01*
X0783575Y0403226D01*
G37*
G36*
X0781348Y0405453D02*
X0779226Y0407575D01*
X0783326Y0411675D01*
X0785448Y0409553D01*
X0781348Y0405453D01*
G37*
G36*
X0779120Y0407680D02*
X0776998Y0409802D01*
X0781098Y0413902D01*
X0783220Y0411780D01*
X0779120Y0407680D01*
G37*
G36*
X0776893Y0409907D02*
X0774771Y0412029D01*
X0778871Y0416129D01*
X0780993Y0414007D01*
X0776893Y0409907D01*
G37*
G36*
X0774666Y0412134D02*
X0772544Y0414256D01*
X0776644Y0418356D01*
X0778766Y0416234D01*
X0774666Y0412134D01*
G37*
G36*
X0774666Y0123134D02*
X0772544Y0125256D01*
X0776644Y0129356D01*
X0778766Y0127234D01*
X0774666Y0123134D01*
G37*
G36*
X0776893Y0120907D02*
X0774771Y0123029D01*
X0778871Y0127129D01*
X0780993Y0125007D01*
X0776893Y0120907D01*
G37*
G36*
X0779120Y0118680D02*
X0776998Y0120802D01*
X0781098Y0124902D01*
X0783220Y0122780D01*
X0779120Y0118680D01*
G37*
G36*
X0781348Y0116453D02*
X0779226Y0118575D01*
X0783326Y0122675D01*
X0785448Y0120553D01*
X0781348Y0116453D01*
G37*
G36*
X0783575Y0114226D02*
X0781453Y0116348D01*
X0785553Y0120448D01*
X0787675Y0118326D01*
X0783575Y0114226D01*
G37*
G36*
X0785802Y0111998D02*
X0783680Y0114120D01*
X0787780Y0118220D01*
X0789902Y0116098D01*
X0785802Y0111998D01*
G37*
G36*
X0788029Y0109771D02*
X0785907Y0111893D01*
X0790007Y0115993D01*
X0792129Y0113871D01*
X0788029Y0109771D01*
G37*
G36*
X0790256Y0107544D02*
X0788134Y0109666D01*
X0792234Y0113766D01*
X0794356Y0111644D01*
X0790256Y0107544D01*
G37*
G36*
X0766356Y0083644D02*
X0764234Y0085766D01*
X0768334Y0089866D01*
X0770456Y0087744D01*
X0766356Y0083644D01*
G37*
G36*
X0764129Y0085871D02*
X0762007Y0087993D01*
X0766107Y0092093D01*
X0768229Y0089971D01*
X0764129Y0085871D01*
G37*
G36*
X0761902Y0088098D02*
X0759780Y0090220D01*
X0763880Y0094320D01*
X0766002Y0092198D01*
X0761902Y0088098D01*
G37*
G36*
X0759674Y0090325D02*
X0757552Y0092447D01*
X0761652Y0096547D01*
X0763774Y0094425D01*
X0759674Y0090325D01*
G37*
G36*
X0757447Y0092552D02*
X0755325Y0094674D01*
X0759425Y0098774D01*
X0761547Y0096652D01*
X0757447Y0092552D01*
G37*
G36*
X0755220Y0094780D02*
X0753098Y0096902D01*
X0757198Y0101002D01*
X0759320Y0098880D01*
X0755220Y0094780D01*
G37*
G36*
X0752993Y0097007D02*
X0750871Y0099129D01*
X0754971Y0103229D01*
X0757093Y0101107D01*
X0752993Y0097007D01*
G37*
G36*
X0750766Y0099234D02*
X0748644Y0101356D01*
X0752744Y0105456D01*
X0754866Y0103334D01*
X0750766Y0099234D01*
G37*
G36*
X0710256Y0107544D02*
X0708134Y0109666D01*
X0712234Y0113766D01*
X0714356Y0111644D01*
X0710256Y0107544D01*
G37*
G36*
X0708029Y0109771D02*
X0705907Y0111893D01*
X0710007Y0115993D01*
X0712129Y0113871D01*
X0708029Y0109771D01*
G37*
G36*
X0705802Y0111998D02*
X0703680Y0114120D01*
X0707780Y0118220D01*
X0709902Y0116098D01*
X0705802Y0111998D01*
G37*
G36*
X0703575Y0114226D02*
X0701453Y0116348D01*
X0705553Y0120448D01*
X0707675Y0118326D01*
X0703575Y0114226D01*
G37*
G36*
X0701348Y0116453D02*
X0699226Y0118575D01*
X0703326Y0122675D01*
X0705448Y0120553D01*
X0701348Y0116453D01*
G37*
G36*
X0699120Y0118680D02*
X0696998Y0120802D01*
X0701098Y0124902D01*
X0703220Y0122780D01*
X0699120Y0118680D01*
G37*
G36*
X0696893Y0120907D02*
X0694771Y0123029D01*
X0698871Y0127129D01*
X0700993Y0125007D01*
X0696893Y0120907D01*
G37*
G36*
X0694666Y0123134D02*
X0692544Y0125256D01*
X0696644Y0129356D01*
X0698766Y0127234D01*
X0694666Y0123134D01*
G37*
G36*
X0670766Y0099234D02*
X0668644Y0101356D01*
X0672744Y0105456D01*
X0674866Y0103334D01*
X0670766Y0099234D01*
G37*
G36*
X0672993Y0097007D02*
X0670871Y0099129D01*
X0674971Y0103229D01*
X0677093Y0101107D01*
X0672993Y0097007D01*
G37*
G36*
X0675220Y0094780D02*
X0673098Y0096902D01*
X0677198Y0101002D01*
X0679320Y0098880D01*
X0675220Y0094780D01*
G37*
G36*
X0677447Y0092552D02*
X0675325Y0094674D01*
X0679425Y0098774D01*
X0681547Y0096652D01*
X0677447Y0092552D01*
G37*
G36*
X0679674Y0090325D02*
X0677552Y0092447D01*
X0681652Y0096547D01*
X0683774Y0094425D01*
X0679674Y0090325D01*
G37*
G36*
X0681902Y0088098D02*
X0679780Y0090220D01*
X0683880Y0094320D01*
X0686002Y0092198D01*
X0681902Y0088098D01*
G37*
G36*
X0684129Y0085871D02*
X0682007Y0087993D01*
X0686107Y0092093D01*
X0688229Y0089971D01*
X0684129Y0085871D01*
G37*
G36*
X0686356Y0083644D02*
X0684234Y0085766D01*
X0688334Y0089866D01*
X0690456Y0087744D01*
X0686356Y0083644D01*
G37*
G36*
X0630256Y0107544D02*
X0628134Y0109666D01*
X0632234Y0113766D01*
X0634356Y0111644D01*
X0630256Y0107544D01*
G37*
G36*
X0628029Y0109771D02*
X0625907Y0111893D01*
X0630007Y0115993D01*
X0632129Y0113871D01*
X0628029Y0109771D01*
G37*
G36*
X0625802Y0111998D02*
X0623680Y0114120D01*
X0627780Y0118220D01*
X0629902Y0116098D01*
X0625802Y0111998D01*
G37*
G36*
X0623575Y0114226D02*
X0621453Y0116348D01*
X0625553Y0120448D01*
X0627675Y0118326D01*
X0623575Y0114226D01*
G37*
G36*
X0621348Y0116453D02*
X0619226Y0118575D01*
X0623326Y0122675D01*
X0625448Y0120553D01*
X0621348Y0116453D01*
G37*
G36*
X0619120Y0118680D02*
X0616998Y0120802D01*
X0621098Y0124902D01*
X0623220Y0122780D01*
X0619120Y0118680D01*
G37*
G36*
X0616893Y0120907D02*
X0614771Y0123029D01*
X0618871Y0127129D01*
X0620993Y0125007D01*
X0616893Y0120907D01*
G37*
G36*
X0614666Y0123134D02*
X0612544Y0125256D01*
X0616644Y0129356D01*
X0618766Y0127234D01*
X0614666Y0123134D01*
G37*
G36*
X0590766Y0099234D02*
X0588644Y0101356D01*
X0592744Y0105456D01*
X0594866Y0103334D01*
X0590766Y0099234D01*
G37*
G36*
X0592993Y0097007D02*
X0590871Y0099129D01*
X0594971Y0103229D01*
X0597093Y0101107D01*
X0592993Y0097007D01*
G37*
G36*
X0595220Y0094780D02*
X0593098Y0096902D01*
X0597198Y0101002D01*
X0599320Y0098880D01*
X0595220Y0094780D01*
G37*
G36*
X0597447Y0092552D02*
X0595325Y0094674D01*
X0599425Y0098774D01*
X0601547Y0096652D01*
X0597447Y0092552D01*
G37*
G36*
X0599674Y0090325D02*
X0597552Y0092447D01*
X0601652Y0096547D01*
X0603774Y0094425D01*
X0599674Y0090325D01*
G37*
G36*
X0601902Y0088098D02*
X0599780Y0090220D01*
X0603880Y0094320D01*
X0606002Y0092198D01*
X0601902Y0088098D01*
G37*
G36*
X0604129Y0085871D02*
X0602007Y0087993D01*
X0606107Y0092093D01*
X0608229Y0089971D01*
X0604129Y0085871D01*
G37*
G36*
X0606356Y0083644D02*
X0604234Y0085766D01*
X0608334Y0089866D01*
X0610456Y0087744D01*
X0606356Y0083644D01*
G37*
G36*
X0550256Y0107544D02*
X0548134Y0109666D01*
X0552234Y0113766D01*
X0554356Y0111644D01*
X0550256Y0107544D01*
G37*
G36*
X0548029Y0109771D02*
X0545907Y0111893D01*
X0550007Y0115993D01*
X0552129Y0113871D01*
X0548029Y0109771D01*
G37*
G36*
X0545802Y0111998D02*
X0543680Y0114120D01*
X0547780Y0118220D01*
X0549902Y0116098D01*
X0545802Y0111998D01*
G37*
G36*
X0543575Y0114226D02*
X0541453Y0116348D01*
X0545553Y0120448D01*
X0547675Y0118326D01*
X0543575Y0114226D01*
G37*
G36*
X0541348Y0116453D02*
X0539226Y0118575D01*
X0543326Y0122675D01*
X0545448Y0120553D01*
X0541348Y0116453D01*
G37*
G36*
X0539120Y0118680D02*
X0536998Y0120802D01*
X0541098Y0124902D01*
X0543220Y0122780D01*
X0539120Y0118680D01*
G37*
G36*
X0536893Y0120907D02*
X0534771Y0123029D01*
X0538871Y0127129D01*
X0540993Y0125007D01*
X0536893Y0120907D01*
G37*
G36*
X0534666Y0123134D02*
X0532544Y0125256D01*
X0536644Y0129356D01*
X0538766Y0127234D01*
X0534666Y0123134D01*
G37*
G36*
X0510766Y0099234D02*
X0508644Y0101356D01*
X0512744Y0105456D01*
X0514866Y0103334D01*
X0510766Y0099234D01*
G37*
G36*
X0512993Y0097007D02*
X0510871Y0099129D01*
X0514971Y0103229D01*
X0517093Y0101107D01*
X0512993Y0097007D01*
G37*
G36*
X0515220Y0094780D02*
X0513098Y0096902D01*
X0517198Y0101002D01*
X0519320Y0098880D01*
X0515220Y0094780D01*
G37*
G36*
X0517447Y0092552D02*
X0515325Y0094674D01*
X0519425Y0098774D01*
X0521547Y0096652D01*
X0517447Y0092552D01*
G37*
G36*
X0519674Y0090325D02*
X0517552Y0092447D01*
X0521652Y0096547D01*
X0523774Y0094425D01*
X0519674Y0090325D01*
G37*
G36*
X0521902Y0088098D02*
X0519780Y0090220D01*
X0523880Y0094320D01*
X0526002Y0092198D01*
X0521902Y0088098D01*
G37*
G36*
X0524129Y0085871D02*
X0522007Y0087993D01*
X0526107Y0092093D01*
X0528229Y0089971D01*
X0524129Y0085871D01*
G37*
G36*
X0526356Y0083644D02*
X0524234Y0085766D01*
X0528334Y0089866D01*
X0530456Y0087744D01*
X0526356Y0083644D01*
G37*
G36*
X0470256Y0107544D02*
X0468134Y0109666D01*
X0472234Y0113766D01*
X0474356Y0111644D01*
X0470256Y0107544D01*
G37*
G36*
X0468029Y0109771D02*
X0465907Y0111893D01*
X0470007Y0115993D01*
X0472129Y0113871D01*
X0468029Y0109771D01*
G37*
G36*
X0465802Y0111998D02*
X0463680Y0114120D01*
X0467780Y0118220D01*
X0469902Y0116098D01*
X0465802Y0111998D01*
G37*
G36*
X0463575Y0114226D02*
X0461453Y0116348D01*
X0465553Y0120448D01*
X0467675Y0118326D01*
X0463575Y0114226D01*
G37*
G36*
X0461348Y0116453D02*
X0459226Y0118575D01*
X0463326Y0122675D01*
X0465448Y0120553D01*
X0461348Y0116453D01*
G37*
G36*
X0459120Y0118680D02*
X0456998Y0120802D01*
X0461098Y0124902D01*
X0463220Y0122780D01*
X0459120Y0118680D01*
G37*
G36*
X0456893Y0120907D02*
X0454771Y0123029D01*
X0458871Y0127129D01*
X0460993Y0125007D01*
X0456893Y0120907D01*
G37*
G36*
X0454666Y0123134D02*
X0452544Y0125256D01*
X0456644Y0129356D01*
X0458766Y0127234D01*
X0454666Y0123134D01*
G37*
G36*
X0430766Y0099234D02*
X0428644Y0101356D01*
X0432744Y0105456D01*
X0434866Y0103334D01*
X0430766Y0099234D01*
G37*
G36*
X0432993Y0097007D02*
X0430871Y0099129D01*
X0434971Y0103229D01*
X0437093Y0101107D01*
X0432993Y0097007D01*
G37*
G36*
X0435220Y0094780D02*
X0433098Y0096902D01*
X0437198Y0101002D01*
X0439320Y0098880D01*
X0435220Y0094780D01*
G37*
G36*
X0437447Y0092552D02*
X0435325Y0094674D01*
X0439425Y0098774D01*
X0441547Y0096652D01*
X0437447Y0092552D01*
G37*
G36*
X0439674Y0090325D02*
X0437552Y0092447D01*
X0441652Y0096547D01*
X0443774Y0094425D01*
X0439674Y0090325D01*
G37*
G36*
X0441902Y0088098D02*
X0439780Y0090220D01*
X0443880Y0094320D01*
X0446002Y0092198D01*
X0441902Y0088098D01*
G37*
G36*
X0444129Y0085871D02*
X0442007Y0087993D01*
X0446107Y0092093D01*
X0448229Y0089971D01*
X0444129Y0085871D01*
G37*
G36*
X0446356Y0083644D02*
X0444234Y0085766D01*
X0448334Y0089866D01*
X0450456Y0087744D01*
X0446356Y0083644D01*
G37*
G36*
X0390256Y0107544D02*
X0388134Y0109666D01*
X0392234Y0113766D01*
X0394356Y0111644D01*
X0390256Y0107544D01*
G37*
G36*
X0388029Y0109771D02*
X0385907Y0111893D01*
X0390007Y0115993D01*
X0392129Y0113871D01*
X0388029Y0109771D01*
G37*
G36*
X0385802Y0111998D02*
X0383680Y0114120D01*
X0387780Y0118220D01*
X0389902Y0116098D01*
X0385802Y0111998D01*
G37*
G36*
X0383575Y0114226D02*
X0381453Y0116348D01*
X0385553Y0120448D01*
X0387675Y0118326D01*
X0383575Y0114226D01*
G37*
G36*
X0381348Y0116453D02*
X0379226Y0118575D01*
X0383326Y0122675D01*
X0385448Y0120553D01*
X0381348Y0116453D01*
G37*
G36*
X0379120Y0118680D02*
X0376998Y0120802D01*
X0381098Y0124902D01*
X0383220Y0122780D01*
X0379120Y0118680D01*
G37*
G36*
X0376893Y0120907D02*
X0374771Y0123029D01*
X0378871Y0127129D01*
X0380993Y0125007D01*
X0376893Y0120907D01*
G37*
G36*
X0374666Y0123134D02*
X0372544Y0125256D01*
X0376644Y0129356D01*
X0378766Y0127234D01*
X0374666Y0123134D01*
G37*
G36*
X0350766Y0099234D02*
X0348644Y0101356D01*
X0352744Y0105456D01*
X0354866Y0103334D01*
X0350766Y0099234D01*
G37*
G36*
X0352993Y0097007D02*
X0350871Y0099129D01*
X0354971Y0103229D01*
X0357093Y0101107D01*
X0352993Y0097007D01*
G37*
G36*
X0355220Y0094780D02*
X0353098Y0096902D01*
X0357198Y0101002D01*
X0359320Y0098880D01*
X0355220Y0094780D01*
G37*
G36*
X0357447Y0092552D02*
X0355325Y0094674D01*
X0359425Y0098774D01*
X0361547Y0096652D01*
X0357447Y0092552D01*
G37*
G36*
X0359674Y0090325D02*
X0357552Y0092447D01*
X0361652Y0096547D01*
X0363774Y0094425D01*
X0359674Y0090325D01*
G37*
G36*
X0361902Y0088098D02*
X0359780Y0090220D01*
X0363880Y0094320D01*
X0366002Y0092198D01*
X0361902Y0088098D01*
G37*
G36*
X0364129Y0085871D02*
X0362007Y0087993D01*
X0366107Y0092093D01*
X0368229Y0089971D01*
X0364129Y0085871D01*
G37*
G36*
X0366356Y0083644D02*
X0364234Y0085766D01*
X0368334Y0089866D01*
X0370456Y0087744D01*
X0366356Y0083644D01*
G37*
D22*
G36*
X0353785Y0143500D02*
X0363514Y0133771D01*
X0359243Y0129500D01*
X0349514Y0139229D01*
X0353785Y0143500D01*
G37*
G36*
X0433785Y0143500D02*
X0443514Y0133771D01*
X0439243Y0129500D01*
X0429514Y0139229D01*
X0433785Y0143500D01*
G37*
G36*
X0513785Y0143500D02*
X0523514Y0133771D01*
X0519243Y0129500D01*
X0509514Y0139229D01*
X0513785Y0143500D01*
G37*
G36*
X0593785Y0143500D02*
X0603514Y0133771D01*
X0599243Y0129500D01*
X0589514Y0139229D01*
X0593785Y0143500D01*
G37*
G36*
X0673785Y0143500D02*
X0683514Y0133771D01*
X0679243Y0129500D01*
X0669514Y0139229D01*
X0673785Y0143500D01*
G37*
G36*
X0753785Y0143500D02*
X0763514Y0133771D01*
X0759243Y0129500D01*
X0749514Y0139229D01*
X0753785Y0143500D01*
G37*
G36*
X0753785Y0432500D02*
X0763514Y0422771D01*
X0759243Y0418500D01*
X0749514Y0428229D01*
X0753785Y0432500D01*
G37*
G36*
X0673785Y0432500D02*
X0683514Y0422771D01*
X0679243Y0418500D01*
X0669514Y0428229D01*
X0673785Y0432500D01*
G37*
G36*
X0593785Y0432500D02*
X0603514Y0422771D01*
X0599243Y0418500D01*
X0589514Y0428229D01*
X0593785Y0432500D01*
G37*
G36*
X0513785Y0432500D02*
X0523514Y0422771D01*
X0519243Y0418500D01*
X0509514Y0428229D01*
X0513785Y0432500D01*
G37*
G36*
X0433785Y0432500D02*
X0443514Y0422771D01*
X0439243Y0418500D01*
X0429514Y0428229D01*
X0433785Y0432500D01*
G37*
G36*
X0353785Y0432500D02*
X0363514Y0422771D01*
X0359243Y0418500D01*
X0349514Y0428229D01*
X0353785Y0432500D01*
G37*
D23*
X0355184Y0430866D02*
X0351134Y0426816D01*
X0354475Y0423475D02*
X0358525Y0427525D01*
X0361866Y0424184D02*
X0357816Y0420134D01*
X0431134Y0426816D02*
X0435184Y0430866D01*
X0438525Y0427525D02*
X0434475Y0423475D01*
X0437816Y0420134D02*
X0441866Y0424184D01*
X0511134Y0426816D02*
X0515184Y0430866D01*
X0518525Y0427525D02*
X0514475Y0423475D01*
X0517816Y0420134D02*
X0521866Y0424184D01*
X0591134Y0426816D02*
X0595184Y0430866D01*
X0598525Y0427525D02*
X0594475Y0423475D01*
X0597816Y0420134D02*
X0601866Y0424184D01*
X0671134Y0426816D02*
X0675184Y0430866D01*
X0678525Y0427525D02*
X0674475Y0423475D01*
X0677816Y0420134D02*
X0681866Y0424184D01*
X0751134Y0426816D02*
X0755184Y0430866D01*
X0758525Y0427525D02*
X0754475Y0423475D01*
X0757816Y0420134D02*
X0761866Y0424184D01*
X0755184Y0141866D02*
X0751134Y0137816D01*
X0754475Y0134475D02*
X0758525Y0138525D01*
X0761866Y0135184D02*
X0757816Y0131134D01*
X0681866Y0135184D02*
X0677816Y0131134D01*
X0674475Y0134475D02*
X0678525Y0138525D01*
X0675184Y0141866D02*
X0671134Y0137816D01*
X0601866Y0135184D02*
X0597816Y0131134D01*
X0594475Y0134475D02*
X0598525Y0138525D01*
X0595184Y0141866D02*
X0591134Y0137816D01*
X0521866Y0135184D02*
X0517816Y0131134D01*
X0514475Y0134475D02*
X0518525Y0138525D01*
X0515184Y0141866D02*
X0511134Y0137816D01*
X0441866Y0135184D02*
X0437816Y0131134D01*
X0434475Y0134475D02*
X0438525Y0138525D01*
X0435184Y0141866D02*
X0431134Y0137816D01*
X0361866Y0135184D02*
X0357816Y0131134D01*
X0354475Y0134475D02*
X0358525Y0138525D01*
X0355184Y0141866D02*
X0351134Y0137816D01*
D24*
X0364047Y0167094D03*
X0367787Y0167094D03*
X0371528Y0167094D03*
X0371528Y0177331D03*
X0364047Y0177331D03*
X0444047Y0177331D03*
X0451528Y0177331D03*
X0451528Y0167094D03*
X0447787Y0167094D03*
X0444047Y0167094D03*
X0524047Y0167094D03*
X0527788Y0167094D03*
X0531528Y0167094D03*
X0531528Y0177331D03*
X0524047Y0177331D03*
X0604047Y0177331D03*
X0611528Y0177331D03*
X0611528Y0167094D03*
X0607788Y0167094D03*
X0604047Y0167094D03*
X0684047Y0167094D03*
X0687788Y0167094D03*
X0691528Y0167094D03*
X0691528Y0177331D03*
X0684047Y0177331D03*
X0764047Y0177331D03*
X0771528Y0177331D03*
X0771528Y0167094D03*
X0767787Y0167094D03*
X0764047Y0167094D03*
X0764047Y0456094D03*
X0767787Y0456094D03*
X0771528Y0456094D03*
X0771528Y0466331D03*
X0764047Y0466331D03*
X0691528Y0466331D03*
X0684047Y0466331D03*
X0684047Y0456094D03*
X0687788Y0456094D03*
X0691528Y0456094D03*
X0611528Y0456094D03*
X0607788Y0456094D03*
X0604047Y0456094D03*
X0604047Y0466331D03*
X0611528Y0466331D03*
X0531528Y0466331D03*
X0524047Y0466331D03*
X0524047Y0456094D03*
X0527788Y0456094D03*
X0531528Y0456094D03*
X0451528Y0456094D03*
X0447787Y0456094D03*
X0444047Y0456094D03*
X0444047Y0466331D03*
X0451528Y0466331D03*
X0371528Y0466331D03*
X0364047Y0466331D03*
X0364047Y0456094D03*
X0367787Y0456094D03*
X0371528Y0456094D03*
D25*
X0370112Y0475101D03*
X0370112Y0486124D03*
X0450112Y0486124D03*
X0450112Y0475101D03*
X0530113Y0475101D03*
X0530113Y0486124D03*
X0610113Y0486124D03*
X0610113Y0475101D03*
X0690112Y0475101D03*
X0690112Y0486124D03*
X0770112Y0486124D03*
X0770112Y0475101D03*
X0770112Y0197124D03*
X0770112Y0186101D03*
X0690112Y0186101D03*
X0690112Y0197124D03*
X0610113Y0197124D03*
X0610113Y0186101D03*
X0530113Y0186101D03*
X0530113Y0197124D03*
X0450112Y0197124D03*
X0450112Y0186101D03*
X0370112Y0186101D03*
X0370112Y0197124D03*
D26*
X0375921Y0156750D03*
X0362929Y0156750D03*
X0442929Y0156750D03*
X0455921Y0156750D03*
X0522929Y0156750D03*
X0535921Y0156750D03*
X0602929Y0156750D03*
X0615921Y0156750D03*
X0682929Y0156750D03*
X0695921Y0156750D03*
X0762929Y0156750D03*
X0775921Y0156750D03*
X0775921Y0445750D03*
X0762929Y0445750D03*
X0695921Y0445750D03*
X0682929Y0445750D03*
X0615921Y0445750D03*
X0602929Y0445750D03*
X0535921Y0445750D03*
X0522929Y0445750D03*
X0455921Y0445750D03*
X0442929Y0445750D03*
X0375921Y0445750D03*
X0362929Y0445750D03*
D27*
X0351562Y0474554D03*
X0351562Y0489121D03*
X0431562Y0489121D03*
X0431562Y0474554D03*
X0511562Y0474554D03*
X0511562Y0489121D03*
X0591563Y0489121D03*
X0591563Y0474554D03*
X0671563Y0474554D03*
X0671563Y0489121D03*
X0751562Y0489121D03*
X0751562Y0474554D03*
X0751562Y0200121D03*
X0751562Y0185554D03*
X0671563Y0185554D03*
X0671563Y0200121D03*
X0591563Y0200121D03*
X0591563Y0185554D03*
X0511562Y0185554D03*
X0511562Y0200121D03*
X0431562Y0200121D03*
X0431562Y0185554D03*
X0351562Y0185554D03*
X0351562Y0200121D03*
D28*
X0382750Y0190437D03*
X0382750Y0182563D03*
X0462750Y0182563D03*
X0462750Y0190437D03*
X0542750Y0190437D03*
X0542750Y0182563D03*
X0622750Y0182563D03*
X0622750Y0190437D03*
X0702750Y0190437D03*
X0702750Y0182563D03*
X0782750Y0182563D03*
X0782750Y0190437D03*
X0782750Y0471563D03*
X0782750Y0479437D03*
X0702750Y0479437D03*
X0702750Y0471563D03*
X0622750Y0471563D03*
X0622750Y0479437D03*
X0542750Y0479437D03*
X0542750Y0471563D03*
X0462750Y0471563D03*
X0462750Y0479437D03*
X0382750Y0479437D03*
X0382750Y0471563D03*
D29*
X0373750Y0511950D03*
X0371250Y0511950D03*
X0368750Y0511950D03*
X0366250Y0511950D03*
X0363750Y0511950D03*
X0361250Y0511950D03*
X0358750Y0511950D03*
X0356250Y0511950D03*
X0353750Y0511950D03*
X0351250Y0511950D03*
X0351250Y0533050D03*
X0353750Y0533050D03*
X0356250Y0533050D03*
X0358750Y0533050D03*
X0361250Y0533050D03*
X0363750Y0533050D03*
X0366250Y0533050D03*
X0368750Y0533050D03*
X0371250Y0533050D03*
X0373750Y0533050D03*
X0431250Y0533050D03*
X0433750Y0533050D03*
X0436250Y0533050D03*
X0438750Y0533050D03*
X0441250Y0533050D03*
X0443750Y0533050D03*
X0446250Y0533050D03*
X0448750Y0533050D03*
X0451250Y0533050D03*
X0453750Y0533050D03*
X0453750Y0511950D03*
X0451250Y0511950D03*
X0448750Y0511950D03*
X0446250Y0511950D03*
X0443750Y0511950D03*
X0441250Y0511950D03*
X0438750Y0511950D03*
X0436250Y0511950D03*
X0433750Y0511950D03*
X0431250Y0511950D03*
X0511250Y0511950D03*
X0513750Y0511950D03*
X0516250Y0511950D03*
X0518750Y0511950D03*
X0521250Y0511950D03*
X0523750Y0511950D03*
X0526250Y0511950D03*
X0528750Y0511950D03*
X0531250Y0511950D03*
X0533750Y0511950D03*
X0533750Y0533050D03*
X0531250Y0533050D03*
X0528750Y0533050D03*
X0526250Y0533050D03*
X0523750Y0533050D03*
X0521250Y0533050D03*
X0518750Y0533050D03*
X0516250Y0533050D03*
X0513750Y0533050D03*
X0511250Y0533050D03*
X0591250Y0533050D03*
X0593750Y0533050D03*
X0596250Y0533050D03*
X0598750Y0533050D03*
X0601250Y0533050D03*
X0603750Y0533050D03*
X0606250Y0533050D03*
X0608750Y0533050D03*
X0611250Y0533050D03*
X0613750Y0533050D03*
X0613750Y0511950D03*
X0611250Y0511950D03*
X0608750Y0511950D03*
X0606250Y0511950D03*
X0603750Y0511950D03*
X0601250Y0511950D03*
X0598750Y0511950D03*
X0596250Y0511950D03*
X0593750Y0511950D03*
X0591250Y0511950D03*
X0671250Y0511950D03*
X0673750Y0511950D03*
X0676250Y0511950D03*
X0678750Y0511950D03*
X0681250Y0511950D03*
X0683750Y0511950D03*
X0686250Y0511950D03*
X0688750Y0511950D03*
X0691250Y0511950D03*
X0693750Y0511950D03*
X0693750Y0533050D03*
X0691250Y0533050D03*
X0688750Y0533050D03*
X0686250Y0533050D03*
X0683750Y0533050D03*
X0681250Y0533050D03*
X0678750Y0533050D03*
X0676250Y0533050D03*
X0673750Y0533050D03*
X0671250Y0533050D03*
X0751250Y0533050D03*
X0753750Y0533050D03*
X0756250Y0533050D03*
X0758750Y0533050D03*
X0761250Y0533050D03*
X0763750Y0533050D03*
X0766250Y0533050D03*
X0768750Y0533050D03*
X0771250Y0533050D03*
X0773750Y0533050D03*
X0773750Y0511950D03*
X0771250Y0511950D03*
X0768750Y0511950D03*
X0766250Y0511950D03*
X0763750Y0511950D03*
X0761250Y0511950D03*
X0758750Y0511950D03*
X0756250Y0511950D03*
X0753750Y0511950D03*
X0751250Y0511950D03*
X0751250Y0244050D03*
X0753750Y0244050D03*
X0756250Y0244050D03*
X0758750Y0244050D03*
X0761250Y0244050D03*
X0763750Y0244050D03*
X0766250Y0244050D03*
X0768750Y0244050D03*
X0771250Y0244050D03*
X0773750Y0244050D03*
X0773750Y0222950D03*
X0771250Y0222950D03*
X0768750Y0222950D03*
X0766250Y0222950D03*
X0763750Y0222950D03*
X0761250Y0222950D03*
X0758750Y0222950D03*
X0756250Y0222950D03*
X0753750Y0222950D03*
X0751250Y0222950D03*
X0693750Y0222950D03*
X0691250Y0222950D03*
X0688750Y0222950D03*
X0686250Y0222950D03*
X0683750Y0222950D03*
X0681250Y0222950D03*
X0678750Y0222950D03*
X0676250Y0222950D03*
X0673750Y0222950D03*
X0671250Y0222950D03*
X0671250Y0244050D03*
X0673750Y0244050D03*
X0676250Y0244050D03*
X0678750Y0244050D03*
X0681250Y0244050D03*
X0683750Y0244050D03*
X0686250Y0244050D03*
X0688750Y0244050D03*
X0691250Y0244050D03*
X0693750Y0244050D03*
X0613750Y0244050D03*
X0611250Y0244050D03*
X0608750Y0244050D03*
X0606250Y0244050D03*
X0603750Y0244050D03*
X0601250Y0244050D03*
X0598750Y0244050D03*
X0596250Y0244050D03*
X0593750Y0244050D03*
X0591250Y0244050D03*
X0591250Y0222950D03*
X0593750Y0222950D03*
X0596250Y0222950D03*
X0598750Y0222950D03*
X0601250Y0222950D03*
X0603750Y0222950D03*
X0606250Y0222950D03*
X0608750Y0222950D03*
X0611250Y0222950D03*
X0613750Y0222950D03*
X0533750Y0222950D03*
X0531250Y0222950D03*
X0528750Y0222950D03*
X0526250Y0222950D03*
X0523750Y0222950D03*
X0521250Y0222950D03*
X0518750Y0222950D03*
X0516250Y0222950D03*
X0513750Y0222950D03*
X0511250Y0222950D03*
X0511250Y0244050D03*
X0513750Y0244050D03*
X0516250Y0244050D03*
X0518750Y0244050D03*
X0521250Y0244050D03*
X0523750Y0244050D03*
X0526250Y0244050D03*
X0528750Y0244050D03*
X0531250Y0244050D03*
X0533750Y0244050D03*
X0453750Y0244050D03*
X0451250Y0244050D03*
X0448750Y0244050D03*
X0446250Y0244050D03*
X0443750Y0244050D03*
X0441250Y0244050D03*
X0438750Y0244050D03*
X0436250Y0244050D03*
X0433750Y0244050D03*
X0431250Y0244050D03*
X0431250Y0222950D03*
X0433750Y0222950D03*
X0436250Y0222950D03*
X0438750Y0222950D03*
X0441250Y0222950D03*
X0443750Y0222950D03*
X0446250Y0222950D03*
X0448750Y0222950D03*
X0451250Y0222950D03*
X0453750Y0222950D03*
X0373750Y0222950D03*
X0371250Y0222950D03*
X0368750Y0222950D03*
X0366250Y0222950D03*
X0363750Y0222950D03*
X0361250Y0222950D03*
X0358750Y0222950D03*
X0356250Y0222950D03*
X0353750Y0222950D03*
X0351250Y0222950D03*
X0351250Y0244050D03*
X0353750Y0244050D03*
X0356250Y0244050D03*
X0358750Y0244050D03*
X0361250Y0244050D03*
X0363750Y0244050D03*
X0366250Y0244050D03*
X0368750Y0244050D03*
X0371250Y0244050D03*
X0373750Y0244050D03*
D30*
X0393858Y0240559D03*
X0393858Y0235441D03*
X0401142Y0238000D03*
X0473858Y0235441D03*
X0473858Y0240559D03*
X0481142Y0238000D03*
X0553858Y0235441D03*
X0553858Y0240559D03*
X0561142Y0238000D03*
X0633858Y0235441D03*
X0633858Y0240559D03*
X0641142Y0238000D03*
X0713858Y0235441D03*
X0713858Y0240559D03*
X0721142Y0238000D03*
X0793858Y0235441D03*
X0793858Y0240559D03*
X0801142Y0238000D03*
X0793858Y0524441D03*
X0793858Y0529559D03*
X0801142Y0527000D03*
X0721142Y0527000D03*
X0713858Y0524441D03*
X0713858Y0529559D03*
X0641142Y0527000D03*
X0633858Y0524441D03*
X0633858Y0529559D03*
X0561142Y0527000D03*
X0553858Y0524441D03*
X0553858Y0529559D03*
X0481142Y0527000D03*
X0473858Y0524441D03*
X0473858Y0529559D03*
X0401142Y0527000D03*
X0393858Y0524441D03*
X0393858Y0529559D03*
D31*
X0386500Y0325500D03*
X0466500Y0325500D03*
X0546500Y0325500D03*
X0626500Y0325500D03*
X0706500Y0325500D03*
X0786500Y0325500D03*
X0786500Y0036500D03*
X0706500Y0036500D03*
X0626500Y0036500D03*
X0546500Y0036500D03*
X0466500Y0036500D03*
X0386500Y0036500D03*
D32*
X0315935Y0054500D02*
X0315937Y0054619D01*
X0315943Y0054738D01*
X0315953Y0054857D01*
X0315967Y0054975D01*
X0315985Y0055093D01*
X0316006Y0055210D01*
X0316032Y0055326D01*
X0316062Y0055442D01*
X0316095Y0055556D01*
X0316132Y0055669D01*
X0316173Y0055781D01*
X0316218Y0055892D01*
X0316266Y0056001D01*
X0316318Y0056108D01*
X0316374Y0056213D01*
X0316433Y0056317D01*
X0316495Y0056418D01*
X0316561Y0056518D01*
X0316630Y0056615D01*
X0316702Y0056709D01*
X0316778Y0056802D01*
X0316856Y0056891D01*
X0316937Y0056978D01*
X0317022Y0057063D01*
X0317109Y0057144D01*
X0317198Y0057222D01*
X0317291Y0057298D01*
X0317385Y0057370D01*
X0317482Y0057439D01*
X0317582Y0057505D01*
X0317683Y0057567D01*
X0317787Y0057626D01*
X0317892Y0057682D01*
X0317999Y0057734D01*
X0318108Y0057782D01*
X0318219Y0057827D01*
X0318331Y0057868D01*
X0318444Y0057905D01*
X0318558Y0057938D01*
X0318674Y0057968D01*
X0318790Y0057994D01*
X0318907Y0058015D01*
X0319025Y0058033D01*
X0319143Y0058047D01*
X0319262Y0058057D01*
X0319381Y0058063D01*
X0319500Y0058065D01*
X0319619Y0058063D01*
X0319738Y0058057D01*
X0319857Y0058047D01*
X0319975Y0058033D01*
X0320093Y0058015D01*
X0320210Y0057994D01*
X0320326Y0057968D01*
X0320442Y0057938D01*
X0320556Y0057905D01*
X0320669Y0057868D01*
X0320781Y0057827D01*
X0320892Y0057782D01*
X0321001Y0057734D01*
X0321108Y0057682D01*
X0321213Y0057626D01*
X0321317Y0057567D01*
X0321418Y0057505D01*
X0321518Y0057439D01*
X0321615Y0057370D01*
X0321709Y0057298D01*
X0321802Y0057222D01*
X0321891Y0057144D01*
X0321978Y0057063D01*
X0322063Y0056978D01*
X0322144Y0056891D01*
X0322222Y0056802D01*
X0322298Y0056709D01*
X0322370Y0056615D01*
X0322439Y0056518D01*
X0322505Y0056418D01*
X0322567Y0056317D01*
X0322626Y0056213D01*
X0322682Y0056108D01*
X0322734Y0056001D01*
X0322782Y0055892D01*
X0322827Y0055781D01*
X0322868Y0055669D01*
X0322905Y0055556D01*
X0322938Y0055442D01*
X0322968Y0055326D01*
X0322994Y0055210D01*
X0323015Y0055093D01*
X0323033Y0054975D01*
X0323047Y0054857D01*
X0323057Y0054738D01*
X0323063Y0054619D01*
X0323065Y0054500D01*
X0323063Y0054381D01*
X0323057Y0054262D01*
X0323047Y0054143D01*
X0323033Y0054025D01*
X0323015Y0053907D01*
X0322994Y0053790D01*
X0322968Y0053674D01*
X0322938Y0053558D01*
X0322905Y0053444D01*
X0322868Y0053331D01*
X0322827Y0053219D01*
X0322782Y0053108D01*
X0322734Y0052999D01*
X0322682Y0052892D01*
X0322626Y0052787D01*
X0322567Y0052683D01*
X0322505Y0052582D01*
X0322439Y0052482D01*
X0322370Y0052385D01*
X0322298Y0052291D01*
X0322222Y0052198D01*
X0322144Y0052109D01*
X0322063Y0052022D01*
X0321978Y0051937D01*
X0321891Y0051856D01*
X0321802Y0051778D01*
X0321709Y0051702D01*
X0321615Y0051630D01*
X0321518Y0051561D01*
X0321418Y0051495D01*
X0321317Y0051433D01*
X0321213Y0051374D01*
X0321108Y0051318D01*
X0321001Y0051266D01*
X0320892Y0051218D01*
X0320781Y0051173D01*
X0320669Y0051132D01*
X0320556Y0051095D01*
X0320442Y0051062D01*
X0320326Y0051032D01*
X0320210Y0051006D01*
X0320093Y0050985D01*
X0319975Y0050967D01*
X0319857Y0050953D01*
X0319738Y0050943D01*
X0319619Y0050937D01*
X0319500Y0050935D01*
X0319381Y0050937D01*
X0319262Y0050943D01*
X0319143Y0050953D01*
X0319025Y0050967D01*
X0318907Y0050985D01*
X0318790Y0051006D01*
X0318674Y0051032D01*
X0318558Y0051062D01*
X0318444Y0051095D01*
X0318331Y0051132D01*
X0318219Y0051173D01*
X0318108Y0051218D01*
X0317999Y0051266D01*
X0317892Y0051318D01*
X0317787Y0051374D01*
X0317683Y0051433D01*
X0317582Y0051495D01*
X0317482Y0051561D01*
X0317385Y0051630D01*
X0317291Y0051702D01*
X0317198Y0051778D01*
X0317109Y0051856D01*
X0317022Y0051937D01*
X0316937Y0052022D01*
X0316856Y0052109D01*
X0316778Y0052198D01*
X0316702Y0052291D01*
X0316630Y0052385D01*
X0316561Y0052482D01*
X0316495Y0052582D01*
X0316433Y0052683D01*
X0316374Y0052787D01*
X0316318Y0052892D01*
X0316266Y0052999D01*
X0316218Y0053108D01*
X0316173Y0053219D01*
X0316132Y0053331D01*
X0316095Y0053444D01*
X0316062Y0053558D01*
X0316032Y0053674D01*
X0316006Y0053790D01*
X0315985Y0053907D01*
X0315967Y0054025D01*
X0315953Y0054143D01*
X0315943Y0054262D01*
X0315937Y0054381D01*
X0315935Y0054500D01*
D33*
X0319500Y0054500D03*
M02*
